<?xml version="1.0" encoding="UTF-8" standalone="no"?>
<!-- Created with Inkscape (http://www.inkscape.org/) -->

<svg
   version="1.1"
   id="svg1"
   width="155.72267"
   height="156.48267"
   viewBox="0 0 155.72267 156.48267"
   sodipodi:docname="cs.pdf"
   xmlns:inkscape="http://www.inkscape.org/namespaces/inkscape"
   xmlns:sodipodi="http://sodipodi.sourceforge.net/DTD/sodipodi-0.dtd"
   xmlns="http://www.w3.org/2000/svg"
   xmlns:svg="http://www.w3.org/2000/svg">
  <defs
     id="defs1" />
  <sodipodi:namedview
     id="namedview1"
     pagecolor="#ffffff"
     bordercolor="#000000"
     borderopacity="0.25"
     inkscape:showpageshadow="2"
     inkscape:pageopacity="0.0"
     inkscape:pagecheckerboard="0"
     inkscape:deskcolor="#d1d1d1">
    <inkscape:page
       x="0"
       y="0"
       inkscape:label="1"
       id="page1"
       width="155.72267"
       height="156.48267"
       margin="0"
       bleed="0" />
  </sodipodi:namedview>
  <g
     id="g1"
     inkscape:groupmode="layer"
     inkscape:label="1">
    <path
       id="path1"
       d="m 551.5229,-348.67896 c -3.36766,-7.21142 -5.22099,-11.1806 -7.03927,-15.07539 -4.79381,-1.06798 -9.25821,-2.06268 -14.8395,-3.30603 4.53241,-7.05841 8.08819,-12.59506 11.19445,-17.43245 -0.79383,-6.46011 -1.44951,-11.80231 -2.3358,-19.0148 6.13176,2.26138 10.61419,3.91391 14.86068,5.47923 4.56324,-2.78956 9.07438,-5.5483 15.40059,-9.41652 -1.20615,8.3411 -2.06268,14.26562 -2.79594,19.34105 3.18596,5.41123 5.83314,9.90752 8.79275,14.93512 -5.84484,2.70987 -10.32835,4.78957 -14.00103,6.49309 -2.87351,5.59932 -5.31772,10.36126 -9.23693,17.9967 M 159.67845,-1055.197 c 43.88509,1.679 88.51721,1.9404 132.90175,5.3857 91.51297,7.1052 183.53386,11.3358 273.11691,33.6056 61.05292,15.1785 117.77747,41.5461 172.72411,71.78933 2.29225,1.26142 4.1392,3.33155 5.69606,6.76194 -168.70502,-70.37067 -343.01251,-106.31947 -525.99481,-90.95827 81.06025,11.0648 162.12051,22.1307 243.18187,33.19653 -0.0765,0.25929 -0.15409,0.51964 -0.22954,0.77895 -70.4737,-1.034 -141.0165,-4.4527 -211.40198,-2.43251 -70.36212,2.02127 -140.05473,12.8905 -208.2766,32.0222 28.79588,-3.67055 57.59278,-7.3411 86.3897,-11.01271 0.40596,1.20192 0.81084,2.40381 1.21678,3.60466 -11.16998,4.82571 -22.34105,9.65245 -33.51103,14.47816 84.34613,-5.24655 167.73265,-0.72688 251.95018,13.40909 -2.05737,2.86185 -3.19341,4.4442 -4.26035,5.92983 53.35157,11.34536 106.76688,22.70451 160.1822,34.06364 -0.26142,1.31351 -0.52285,2.62486 -0.78428,3.93729 -31.60988,-4.66628 -63.30688,-8.81398 -94.81155,-14.10941 -64.14429,-10.78209 -128.74448,-16.03075 -193.69107,-14.69708 -22.32726,0.46016 -44.66405,5.19446 -66.76279,9.25183 -6.82146,1.25293 -12.86604,6.72685 -19.26668,10.26884 0.52285,1.41762 1.04677,2.83526 1.56961,4.25289 1.92031,0.16153 3.84908,0.5388 5.75557,0.44954 84.95185,-4.00745 168.97174,4.46118 252.20098,20.53763 53.01149,10.23907 106.34071,20.15934 158.12904,35.07107 62.49707,17.99568 121.59569,44.88931 171.57213,88.21753 15.50049,13.43887 28.1253,29.21562 35.341,48.77453 10.33258,28.00202 1.68648,48.57154 -25.86918,60.35364 -26.72998,11.42823 -55.00406,11.24013 -83.19843,9.25823 -17.38995,-1.22317 -34.6683,-4.15834 -51.95305,-6.62487 -2.98085,-0.42613 -5.74707,-2.35385 -8.29646,-5.90434 14.13702,-1.65246 28.40584,-2.58551 42.3654,-5.18699 10.9819,-2.04464 21.91493,-5.31348 32.2847,-9.48775 32.1306,-12.93619 36.95842,-39.99454 22.49087,-67.86479 -10.98721,-21.16356 -28.61943,-35.96268 -48.67569,-48.21343 -49.24955,-30.08488 -103.81997,-45.84892 -159.28631,-59.11137 -15.23905,-3.64397 -30.71613,-6.29433 -47.51523,-9.68962 v 182.17467 c 43.40259,-5.63018 86.11447,-11.17107 130.01755,-16.86606 v 40.98391 c -43.77556,7.68967 -88.28763,15.51003 -133.29596,23.41649 -1.68544,125.41718 -3.35068,249.37952 -5.05207,376.02515 84.04645,-31.35484 166.03974,-61.94345 248.69086,-92.77861 2.76409,-45.45252 5.48352,-90.18136 8.32411,-136.90382 -33.1986,10.92662 -64.55662,21.24859 -97.00282,31.92762 -0.90437,-6.98404 -1.60467,-12.38572 -2.37514,-18.33576 -7.41761,1.50689 -14.34321,2.91284 -22.16357,4.50053 v -27.33147 c 41.92651,-12.57168 83.79883,-25.12636 128.28325,-38.46428 v -93.06978 c 26.59927,0 50.19431,1.27419 73.59591,-0.31561 30.7969,-2.08928 61.766,-4.67162 92.06981,-10.24757 38.11356,-7.01378 67.84459,-30.1455 92.75524,-58.5609 36.12739,-41.20708 37.46849,-90.82431 5.44099,-140.08025 -25.94145,-39.89465 -61.0986,-70.33766 -99.3737,-97.93588 -63.8223,-46.01787 -136.20461,-72.65326 -211.46787,-90.71059 -67.76489,-16.255 -136.33953,-31.3304 -205.43704,-39.1933 -60.76277,-6.916 -122.74661,-3.8342 -184.18847,-3.7428 -28.11361,0.043 -56.2219,3.5069 -84.10491,5.4028"
       style="fill:#365ba3;fill-opacity:1;fill-rule:nonzero;stroke:none"
       transform="matrix(0.16089333,0,0,-0.16089333,-4.0030071,-17.326398)" />
    <path
       id="path2"
       d="m 207.88867,-865.59732 c 15.18802,153.94946 30.08489,304.95421 45.07421,456.90265 37.17735,49.64592 74.93702,100.06763 112.69671,150.49042 0.95325,-0.22107 1.90648,-0.4421 2.85973,-0.66208 -1.6185,-113.0559 -3.23697,-226.11075 -4.88098,-340.97325 -8.26563,-5.48775 -17.49302,-11.61524 -30.49404,-20.24752 -0.16684,72.03269 6.00742,140.62116 6.78638,211.57308 -7.94578,-5.32625 -13.28583,-8.90645 -19.75127,-13.24013 -0.99679,-10.79486 -1.92134,-23.15825 -3.31454,-35.46852 -6.36553,-56.26546 -6.85546,-112.88054 -10.34217,-169.31606 -2.56745,-41.55775 -5.98721,-83.0645 -8.9553,-124.59889 -0.19768,-2.7747 0.22421,-5.59509 0.46332,-10.62695 6.85543,-5.26035 14.63331,-11.22739 25.76718,-19.77144 4.30072,20.4505 1.39743,37.74266 2.93303,54.59065 1.55899,17.10622 3.26036,34.20072 5.05207,52.88394 4.99892,2.87886 10.70557,6.16579 16.10514,9.27628 4.64929,-3.49838 8.54515,-6.42929 13.99782,-10.53235 -1.17853,-59.57045 -2.36876,-119.7594 -3.60786,-182.44884 -50.71711,-2.63975 -99.77007,-5.19554 -150.38943,-7.83099"
       style="fill:#6ca130;fill-opacity:1;fill-rule:nonzero;stroke:none"
       transform="matrix(0.16089333,0,0,-0.16089333,-4.0030071,-17.326398)" />
    <path
       id="path3"
       d="m 507.46782,-234.82178 c -52.07738,1.70774 -100.83595,19.13062 -151.86552,33.19648 -20.26774,-29.29427 -43.10187,-55.9849 -82.62989,-67.79783 40.79051,40.61086 57.71605,88.2919 59.74687,140.29807 28.15505,-19.04881 55.62677,-39.26657 84.69469,-56.84462 29.19013,-17.6535 59.97003,-32.67683 90.05385,-48.8521"
       style="fill:#365ba3;fill-opacity:1;fill-rule:nonzero;stroke:none"
       transform="matrix(0.16089333,0,0,-0.16089333,-4.0030071,-17.326398)" />
    <path
       id="path4"
       d="m 889.98499,-173.2577 c -30.98075,9.21142 -59.28034,17.62585 -87.57883,26.04028 0.0382,0.97447 0.0754,1.94896 0.11371,2.92347 50.27824,2.85122 100.55751,5.70455 151.10354,8.57064 -9.35383,-46.68523 -53.1454,-93.98049 -91.49485,-98.97835 5.23271,10.17741 10.66732,19.86177 15.25924,29.92868 4.38681,9.62059 7.89798,19.64178 12.59719,31.51528"
       style="fill:#365ba3;fill-opacity:1;fill-rule:nonzero;stroke:none"
       transform="matrix(0.16089333,0,0,-0.16089333,-4.0030071,-17.326398)" />
    <path
       id="path5"
       d="m 489.67722,-124.175 c 27.79264,-51.01146 71.32278,-89.37267 117.10371,-130.17058 -51.85211,13.04352 -87.88492,42.66295 -117.11008,83.24621 -23.07748,-7.50474 -46.4026,-13.45689 -69.09219,-7.7109 22.66409,17.92022 46.14329,36.48553 69.09856,54.63527"
       style="fill:#365ba3;fill-opacity:1;fill-rule:nonzero;stroke:none"
       transform="matrix(0.16089333,0,0,-0.16089333,-4.0030071,-17.326398)" />
    <path
       id="path6"
       d="m 761.0811,-252.55179 c -10.43777,-40.97113 -35.73099,-65.59909 -74.92108,-82.80519 9.22209,18.8044 16.95851,34.57904 25.31874,51.62678 -26.05731,7.17003 -51.2251,14.09453 -80.25581,22.08175 45.18899,3.1658 86.33442,6.04782 129.85815,9.09666"
       style="fill:#365ba3;fill-opacity:1;fill-rule:nonzero;stroke:none"
       transform="matrix(0.16089333,0,0,-0.16089333,-4.0030071,-17.326398)" />
    <path
       id="path7"
       d="m 162.34369,-370.50671 c 35.01261,8.34425 64.36212,25.58861 87.11231,54.02423 -5.90542,-23.83732 -9.57383,-48.5907 -36.68851,-60.67455 6.71837,-8.83527 13.07859,-17.20187 19.62587,-25.81288 -26.62264,-6.00423 -53.32395,6.34113 -70.04967,32.4632"
       style="fill:#365ba3;fill-opacity:1;fill-rule:nonzero;stroke:none"
       transform="matrix(0.16089333,0,0,-0.16089333,-4.0030071,-17.326398)" />
    <path
       id="path8"
       d="m 771.5901,-372.63422 c 31.99668,-2.42718 61.33025,5.16257 89.52674,24.98609 4.29968,-25.38989 -0.47609,-46.2081 -16.8554,-66.80207 -3.79913,10.39635 -6.80549,18.62162 -8.87777,24.29427 -23.02434,4.88416 -44.01895,9.33792 -65.01352,13.79169 z"
       style="fill:#365ba3;fill-opacity:1;fill-rule:nonzero;stroke:none"
       transform="matrix(0.16089333,0,0,-0.16089333,-4.0030071,-17.326398)" />
  </g>
</svg>
