<?xml version="1.0" encoding="UTF-8" standalone="no"?>
<!-- Created with Inkscape (http://www.inkscape.org/) -->

<svg
   version="1.1"
   id="svg1"
   width="126.556"
   height="156.48933"
   viewBox="0 0 126.556 156.48933"
   sodipodi:docname="nju.pdf"
   xmlns:inkscape="http://www.inkscape.org/namespaces/inkscape"
   xmlns:sodipodi="http://sodipodi.sourceforge.net/DTD/sodipodi-0.dtd"
   xmlns="http://www.w3.org/2000/svg"
   xmlns:svg="http://www.w3.org/2000/svg">
  <defs
     id="defs1" />
  <sodipodi:namedview
     id="namedview1"
     pagecolor="#ffffff"
     bordercolor="#000000"
     borderopacity="0.25"
     inkscape:showpageshadow="2"
     inkscape:pageopacity="0.0"
     inkscape:pagecheckerboard="0"
     inkscape:deskcolor="#d1d1d1">
    <inkscape:page
       x="0"
       y="0"
       inkscape:label="1"
       id="page1"
       width="126.556"
       height="156.48933"
       margin="0"
       bleed="0" />
  </sodipodi:namedview>
  <g
     id="g1"
     inkscape:groupmode="layer"
     inkscape:label="1">
    <path
       id="path1"
       d="m 573.13281,-374.87775 c 9.84055,30.39307 7.80017,68.87326 7.80017,107.76792 0,39.18158 0.11585,77.76803 0.39321,116.38637 -1.1796,0 -2.34856,-0.73324 -3.47608,-1.24335 -8.17105,-3.59189 -16.98077,-6.58869 -26.80008,-8.51218 -23.09343,-4.49519 -51.41319,-3.81508 -73.15593,0.93518 -11.20082,2.43357 -21.11578,6.1955 -29.883,10.6482 -1.80659,-1.43465 -4.49522,-2.42296 -7.30073,-3.66631 -24.86707,-10.96701 -64.05926,-14.16574 -95.82322,-7.74704 -9.95748,2.0085 -19.00101,4.69711 -26.85433,8.34215 -1.05313,0.51011 -2.21042,1.36024 -3.51752,1.24335 -0.36132,-38.65021 0.62595,-78.73508 0.62595,-115.96129 0,-19.37296 -0.93413,-39.16031 -0.16898,-57.58748 0.85013,-18.35274 2.91178,-35.75967 7.93833,-50.74367 4.95215,-14.69707 11.57275,-27.33356 19.82988,-38.84257 12.31665,-17.24648 27.24752,-31.55036 46.13161,-41.78413 6.36555,-3.38998 13.06051,-6.41865 19.84054,-9.5536 13.22948,-6.19554 26.46107,-12.6567 39.60666,-19.08601 13.11363,6.53555 26.42923,12.72046 39.48973,19.08601 6.7375,3.25077 13.48456,6.02547 19.79802,9.44628 12.54938,6.66417 23.22946,15.62269 32.73102,25.69705 14.18591,14.95107 25.77992,33.54822 32.79475,55.17512 m 17.24649,237.09793 c 0.33048,-42.00834 -0.6589,-82.06134 -0.6589,-123.8784 0,-41.5195 2.24336,-84.63411 -8.39421,-116.38635 -5.17534,-15.58019 -12.97548,-28.6407 -21.76503,-40.87125 -8.64928,-12.12642 -19.39418,-22.76294 -30.92336,-31.52061 -11.98721,-9.13812 -25.84475,-15.60993 -39.9159,-22.69812 -12.07116,-6.07967 -24.20716,-12.35913 -35.96163,-18.74701 -1.63655,-0.90222 -3.5696,-1.49732 -4.74917,-3.08075 -6.33369,4.26141 -13.23055,7.69392 -20.07432,11.27411 -6.89689,3.52923 -13.84694,7.15303 -20.74382,10.6918 -7.13066,3.64507 -14.2518,6.75769 -21.00947,10.35068 -6.75876,3.56 -12.89051,7.71515 -18.91599,12.36975 -23.66623,18.06583 -41.92332,41.477 -52.7522,72.63417 -5.53663,16.07855 -7.12112,34.48549 -8.07649,54.42056 -0.90436,19.65035 -0.42506,40.56417 -0.42506,60.94669 0,41.51947 -0.59511,82.34823 -0.59511,124.18657 -0.0319,0.22313 -0.0319,0.45694 0.11581,0.45694 18.08709,-10.55257 41.89254,-17.98081 70.41525,-18.23586 29.23371,-0.34005 54.02746,5.36663 71.92326,16.70558 18.03393,-11.2752 43.10184,-17.16253 72.05072,-16.70558 27.99142,0.36133 52.64592,7.68329 70.45562,18.08708"
       style="fill:#5c0f56;fill-opacity:1;fill-rule:nonzero;stroke:none"
       transform="matrix(0.42306667,0,0,-0.42306667,-126.54003,-55.566962)" />
    <path
       id="path2"
       d="m 580.933,-267.1109 c 0,-38.89462 2.04034,-77.37483 -7.80017,-107.76791 -7.0138,-21.62584 -18.60884,-40.22301 -32.79477,-55.17515 -9.50157,-10.07435 -20.18059,-19.03288 -32.73102,-25.69596 -6.31241,-3.42188 -13.06053,-6.19551 -19.79802,-9.44736 -13.06052,-6.36556 -26.37608,-12.54938 -39.48975,-19.08602 -13.14555,6.42933 -26.37609,12.8905 -39.60665,19.08602 -6.78,3.13495 -13.47498,6.16362 -19.84052,9.5536 -18.88411,10.23378 -33.81497,24.53765 -46.13162,41.78521 -8.25713,11.50898 -14.87773,24.14443 -19.82988,38.84152 -5.02655,14.98399 -7.08818,32.39095 -7.93836,50.7437 -0.76512,18.42713 0.17005,38.2145 0.17005,57.58741 0,37.22621 -0.9883,77.3111 -0.62699,115.96132 1.30712,0.1169 2.46544,-0.73326 3.5175,-1.24336 7.85334,-3.64505 16.89687,-6.33366 26.85435,-8.34216 31.76395,-6.41867 70.95615,-3.21996 95.82322,7.74704 2.80553,1.24337 5.49414,2.23166 7.30071,3.66632 8.76724,-4.4527 18.6822,-8.21465 29.88299,-10.64821 21.74277,-4.75026 50.06253,-5.43038 73.15596,-0.93518 9.81931,1.92349 18.62905,4.92029 26.80118,8.51219 1.12645,0.5101 2.29541,1.24336 3.47496,1.24336 -0.27736,-38.61836 -0.39317,-77.20483 -0.39317,-116.38638"
       style="fill:#ffffff;fill-opacity:1;fill-rule:nonzero;stroke:none"
       transform="matrix(0.42306667,0,0,-0.42306667,-126.54003,-55.566962)" />
    <path
       id="path3"
       d="m 450.04507,-171.90082 c -0.50793,1.29968 -1.0159,4.18488 -2.48562,3.92984 -2.57172,-5.3145 -4.29755,-11.47711 -6.56001,-17.21563 1.30073,-0.0595 3.76086,0.0563 5.02973,0 -0.95961,5.11688 4.86498,5.42613 3.67481,0 h 5.20186 c -1.47292,3.92985 -3.33261,9.01589 -4.86077,13.28579 m 1.04461,7.1519 c 12.23907,-1.32835 21.43245,-7.71829 26.97015,-16.79052 0.73645,-1.18705 1.95218,-3.10946 1.83847,-4.04357 -0.17003,-0.98616 -0.90648,-1.77894 -1.83847,-1.72261 -1.21571,0.0563 -1.5558,1.72261 -2.46227,3.22102 -4.65886,8.17214 -12.20716,13.798 -23.00842,15.69278 0.51009,-2.48989 1.63973,-4.89366 2.60256,-7.46858 0.90434,-2.54197 1.86609,-5.17001 2.74067,-7.65672 0.42508,-0.4527 -0.0563,-1.0457 0,-1.66949 1.95006,0.14132 4.12966,0.0563 3.81615,-2.11901 -0.42401,-2.80127 -8.7885,-0.68014 -11.90002,-1.3847 -0.34006,-2.14878 -0.0553,-5.00421 -0.14452,-7.40911 1.70027,-1.01596 9.78207,0.85015 11.4218,-0.33688 0.4814,-0.31032 0.68013,-1.3018 0.62274,-1.81084 -0.45164,-3.05417 -8.64929,-0.56642 -11.90002,-1.35493 -0.47927,-2.54622 0.70028,-6.1073 -1.83846,-6.27842 -2.43039,-0.13706 -1.75026,3.22423 -1.80766,6.13497 -3.05736,1.10202 -11.4229,-1.61317 -12.04671,1.32835 -0.84695,4.18384 8.96704,1.16048 11.8735,2.31775 0.28905,2.06481 0.28905,5.20295 0,7.29435 -2.71199,1.02017 -11.30601,-1.4134 -11.8735,1.35705 -0.44951,2.15196 1.69818,2.48671 3.67586,2.26142 0.42827,0.39637 -0.22316,0.90434 0,1.52496 1.97876,4.92134 3.59297,10.20506 5.65674,15.09769 -13.06372,-1.78002 -21.31556,-9.69707 -25.44625,-20.83413 1.41658,0.0574 3.56536,0.87674 6.38681,1.35707 2.99892,0.50798 9.08177,1.8948 7.29966,-2.29225 -2.45803,-0.78955 -5.25929,-0.70349 -7.80445,-1.24333 -2.48669,-0.47821 -4.74812,-1.35388 -6.83951,-2.11793 -0.39639,-0.76624 -0.51113,-1.83742 -0.62379,-2.91074 2.20616,0.3358 4.52284,1.29755 7.4633,1.83527 2.11688,0.36875 8.42824,1.89054 7.80445,-1.5239 -0.28376,-1.49948 -2.09246,-1.305 -3.5069,-1.38576 -4.07332,-0.25717 -9.187,-1.58445 -11.76085,-3.02656 -0.11266,-0.53771 0,-1.75449 0.16682,-2.43144 2.49096,0.65142 4.29862,1.18808 7.46756,1.69714 1.97661,0.2529 6.72687,1.58127 7.17853,-0.62171 0.6525,-3.16789 -4.91817,-2.26247 -7.60147,-2.74174 -2.91603,-0.54089 -4.66628,-1.35919 -6.41762,-1.95004 0.64826,-1.50161 0.67588,-3.42298 -0.79382,-3.67481 -3.05208,-0.68013 -3.39212,6.49942 -3.50478,9.41122 -0.11369,4.46651 0.50693,8.424 1.41341,11.45057 4.01803,13.79481 14.75763,22.61624 30.47276,24.96054 1.13283,1.66949 1.13283,5.00423 3.34113,4.78 1.95001,-0.19979 1.75131,-3.45165 2.90642,-4.92243"
       style="fill:#5c0f56;fill-opacity:1;fill-rule:evenodd;stroke:none"
       transform="matrix(0.42306667,0,0,-0.42306667,-126.54003,-55.566962)" />
    <path
       id="path4"
       d="m 338.15706,-228.43622 v -0.42718 c 1.35385,0.14239 1.66841,-1.49945 2.77041,-1.10201 -0.34111,1.04463 -1.64186,1.81078 -2.77041,1.52919 m 28.3495,8.84268 c -0.59192,-0.2763 -1.21359,-0.47717 -1.49733,-1.07228 -0.22528,-1.01803 0.39533,-2.8565 -0.48036,-3.19337 -1.46757,1.04675 -2.5696,0.25503 -3.53133,-0.79173 -0.73855,0.14137 -0.96067,0.84803 -2.09562,0.62062 -0.11052,-0.50795 -0.55899,-2.37513 0.28585,-2.43143 0.8491,0.17003 -0.45269,1.58447 0.62276,1.58447 0.28266,-0.73753 0.78958,-1.19021 1.18701,-1.75238 -0.0584,-1.13284 -0.45588,-3.42186 0.16793,-4.26988 1.81082,0.53667 0.0829,4.60782 2.31771,4.7789 0.7333,-0.42722 0.53457,-1.80977 0.59832,-2.90964 0.64505,-0.28586 1.43676,-1.27627 2.56958,-1.38893 1.24122,-0.13921 3.47183,0.28269 3.95854,1.21465 -0.79595,0.62382 -2.09456,0.65356 -2.71732,1.38572 -0.25077,0.17003 -0.1679,0.79384 -0.1679,1.18918 -1.49628,1.01485 -2.20614,3.56001 -1.52495,5.82144 0.22529,0.73749 1.74919,1.78107 0.45163,2.6036 -0.22634,-0.25504 -0.11583,-0.90543 -0.14452,-1.38894 m -12.94363,1.83953 c 0.11372,-0.56642 1.26886,-0.2827 1.66633,-0.16898 0,0.19659 0.0563,0.33901 0.17319,0.45271 -0.22633,0.36451 -0.68437,0.59087 -1.10519,0.76514 0.16896,-0.76514 -0.79064,-0.40063 -0.73433,-1.04887 m -19.5376,0.39744 c 0.85016,0.70563 1.13388,2.37406 0.62379,3.55897 -1.52815,0 -1.81085,-2.93835 -0.62379,-3.55897 m 7.34957,2.79595 c -0.67377,-0.0563 -0.39641,0.82462 -1.0744,0.76302 -0.90328,-0.0255 -0.90328,-0.9575 -1.69607,-1.07333 -0.30923,0.11583 -0.50792,0.33901 -1.07222,0.31031 -0.34219,-0.31031 -0.84907,-0.47821 -0.73433,-1.18489 0.78853,0.339 1.01912,0.19659 1.66733,-0.17219 0.25293,0.28586 0.16792,0.87887 0.76515,0.87887 -0.11584,-2.26142 -1.50154,-4.60784 -4.10092,-4.83101 -0.25395,-1.21891 -1.04672,-1.81401 -1.83527,-2.46334 -0.62377,-2.79701 0.16791,-5.373 2.8863,-5.373 0.19342,0.51014 0.13389,1.30075 0.16366,2.03508 -0.78854,0.73752 -1.52817,1.50054 -1.21469,3.33792 0.42615,0.36876 0.95963,0.64933 1.81084,0.62063 1.15623,1.07543 2.17424,2.37722 2.91177,3.95854 -0.50798,1.7003 1.2444,2.88308 1.97766,1.49839 0,-0.44952 -0.47926,-1.24548 0.28267,-1.21466 0.62381,0.17003 0,0.61954 0,1.07331 0.76302,0.99046 2.43147,1.04571 2.90968,2.29013 -1.15728,1.80871 -2.39958,0.0574 -3.64716,-0.45378 m 17.18908,2.91285 c 1.24655,-0.22423 3.729,-0.53773 4.01804,0.70668 -0.62275,1.58237 -4.23909,1.4984 -4.01804,-0.70668 m -25.26981,0.70668 c 0.95749,-0.5388 3.21891,-0.70668 3.95536,0.1711 -0.53664,1.04674 -0.53664,1.94687 -0.45165,2.88099 -1.52603,-0.59408 -2.99893,-1.38364 -3.50371,-3.05209 m 24.53867,1.58237 c 0.64824,0.76302 0.33582,2.71623 -0.7917,2.71623 -0.45697,-0.62379 -0.67801,-3.05417 0.7917,-2.71623 m -7.91707,6.22099 c -0.56642,-0.87457 0.0542,-2.34535 0.90223,-2.74279 1.41549,0.62275 0.96172,2.99788 -0.90223,2.74279 m -7.46547,-1.07438 c -0.67901,0 -0.53557,0.82043 -1.35385,0.62275 0.11159,-1.15834 -0.96492,-1.15834 -1.2444,-1.8087 0.16683,-0.82357 1.2444,-0.82357 1.52285,-1.55684 2.40698,0.0574 3.0563,1.81083 5.14767,2.14983 -0.3964,2.82572 -2.54302,1.52391 -4.07227,0.59296 m 28.29642,0.47821 c 0.33792,-0.81824 1.61424,-0.64823 1.83847,-1.52387 -0.45271,-1.69713 0.96385,-2.54625 1.24757,-3.98936 -0.90646,-1.29862 -2.32306,-0.11159 -2.74812,0.76405 -0.67162,-0.11262 -1.09774,-0.4527 -1.09774,-1.21358 3.50369,-0.22319 1.58341,-4.29756 -0.593,-5.00212 -0.65676,-0.28373 -1.55685,0 -2.29223,-0.17215 -0.84699,-0.22531 -1.64397,-1.18278 -2.5728,-1.52604 -1.44313,-0.50583 -2.7715,-0.085 -3.64504,-0.79062 -0.45057,-1.78215 -0.22741,-3.98726 1.07544,-3.96068 1.29862,0.0595 1.24019,2.63232 2.5696,3.05525 1.89587,-0.30925 1.69925,1.19022 2.74071,1.52603 0.56747,0.22742 1.21678,-0.16896 1.95747,0 2.11478,0.59511 2.68013,3.3358 3.98192,4.91922 3.44633,-0.42614 4.29436,2.57384 4.40912,5.00528 -1.92134,-0.37191 -4.23696,-0.62379 -4.57913,1.04464 -0.1711,1.21572 0.93302,1.75134 1.24653,2.90966 -0.90436,1.55896 -3.30923,0.34114 -3.53877,-1.04571 m 14.3347,1.32945 c 1.13391,0.65036 0.51008,3.02338 -0.73114,3.08182 -0.54199,-0.87461 -0.54199,-3.05208 0.73114,-3.08182 m -17.52493,9.78423 c -1.2444,-0.48351 -1.95322,-1.61315 -2.26352,-2.99999 1.01912,-0.42187 1.21359,1.02019 2.08819,1.15941 1.04888,-0.56216 1.02231,-2.17427 2.15302,-2.57066 0.27949,-0.45377 1.63655,0.17003 1.69394,-0.45377 0,-0.81932 -1.30074,-0.81932 -2.14559,-1.24443 -0.90647,-0.45058 -2.57597,-1.77894 -3.96066,-2.63016 -2.42613,-1.38151 -5.59511,-3.19232 -1.97767,-4.80444 0.39639,0.31137 -0.0266,1.07651 0.17002,1.44313 0.28162,0.73328 3.27735,2.85547 3.62061,2.91286 0.62166,0.11262 1.32414,-0.34114 1.86395,-0.25505 1.58132,0.19766 1.94794,1.72581 3.3337,2.31668 0.87458,-0.20086 1.75663,-0.36664 2.94685,-0.34008 1.37938,-0.47821 0.64824,-3.1105 2.25398,-3.38893 0.73751,1.01381 0.17002,2.43145 1.07755,3.38893 -0.14452,0.98937 -1.04567,1.24761 -0.93516,2.40595 0.25506,0.59192 0.93516,0.73433 1.52924,0.96069 1.43995,-1.04572 1.15725,-3.81616 2.57381,-4.86183 1.24125,0.75981 1.5537,3.53026 0.78855,4.86183 -0.67801,1.09987 -2.76726,1.52284 -3.22529,2.37192 -3.55791,-0.0266 -6.27415,-0.90115 -8.98721,-1.7513 -1.07227,0.90222 -1.53029,2.4888 -2.59831,3.47924 m 13.25502,2.28587 c -0.78746,0.0871 -1.09885,-0.7896 -1.04675,-1.35599 0.11688,-1.04463 1.98084,-2.20404 3.05524,-2.1477 -0.3422,0.64824 -1.24125,3.39209 -2.00849,3.50369 m -9.72687,-1.52285 c 0.034,-0.0606 0.31561,-0.31135 0.31561,-0.39639 0.56642,-0.36663 0.96071,0.33582 1.63871,0.39639 1.24653,0.11051 2.1477,-0.59513 2.90964,-0.59513 0.73646,0.70564 0.0861,2.00638 -0.76194,2.11798 -1.01701,-1.63335 -4.60466,1.33261 -4.10202,-1.52285 m 0,7.12113 c -1.38255,-1.07226 -4.04248,-2.14558 -3.19234,-4.40913 0.11371,-0.0287 0.28376,0 0.28376,-0.11475 1.75132,0.51114 2.23696,2.3783 3.50901,3.47711 1.07228,0.90648 3.051,1.49948 2.88099,3.56217 -1.75452,0.65249 -2.37196,-1.58343 -3.48142,-2.5154 m -9.57808,0.5101 c 0.16899,-0.22529 0.6185,-0.19659 1.07546,-0.19659 0.39427,0.90539 0.53561,2.11583 1.01382,2.88202 -1.32837,0.42401 -2.20404,-1.61319 -2.08928,-2.68543 m 5.59511,-0.65039 c 1.52284,-0.36981 2.09351,1.47183 2.77257,2.46013 -0.39637,0.73328 -0.17215,2.12009 -1.24973,2.14879 0.14453,-2.17746 -0.90011,-3.16577 -1.52284,-4.60892 m 9.02017,6.8969 c 0.75769,-0.59191 -0.25505,-1.52179 0.136,-2.11797 2.20937,0.4251 4.94898,-1.27308 5.17641,-2.46118 0.31135,-1.52711 -1.38575,-3.16577 -0.93199,-5.17001 3.73112,-2.37938 4.63654,-7.5802 8.87776,-9.49944 1.83633,-3.47924 3.051,-8.73642 2.26035,-13.54193 -0.62061,-3.64824 -4.24017,-4.04246 -3.50478,-8.82355 0.34114,-2.05846 1.58237,-6.21571 3.05101,-6.86819 0.9628,-0.4251 2.26567,0.085 3.22421,-0.59195 0.76195,-0.93412 0.39641,-2.96912 -0.17108,-3.84584 -2.93943,-0.53774 -4.01274,-3.64609 -7.62909,-2.42932 -1.36026,0.50583 -3.73219,2.06482 -4.41127,3.22104 -0.45377,0.73643 -0.39741,1.78209 -0.76512,2.5738 -0.76196,1.72475 -2.12114,2.76938 -2.91072,3.98616 -2.20406,-0.6801 -8.98935,0.47821 -7.91391,-3.0818 0.50905,-1.58557 5.87778,-0.79172 4.12645,-4.86182 -0.62381,-1.41337 -5.2582,-3.39315 -7.01167,-3.79167 -0.62273,-0.11053 -1.75237,-0.19449 -2.14876,-0.13815 -0.56641,0.0542 -1.07225,0.59189 -1.80764,0.76407 -1.47502,0.28161 -3.45059,-0.36983 -5.03292,0 -0.96387,0.16894 -3.62061,2.06161 -4.58235,2.88309 -0.62063,0.5643 -1.86185,2.09138 -2.09032,2.74386 -0.7067,1.66522 -0.2508,3.04993 -2.03824,3.81188 -0.78853,0.34112 -1.80341,0.19976 -2.70883,0.45376 -1.63867,0.39531 -3.39426,1.72689 -4.71941,0.73432 -1.66846,-1.83632 0.95961,-2.62804 1.80553,-4.24227 0.81932,-1.52389 0.31241,-2.65777 0.48349,-4.8618 -0.53985,-0.73221 -1.70029,-2.06056 -3.05524,-2.28691 -1.83845,-0.34009 -4.32727,1.04568 -6.89686,1.66629 -1.66843,0.42615 -4.18277,0.42615 -4.52283,2.12009 -0.22635,1.0765 0.84379,1.6982 1.04146,2.60464 0.31241,1.21144 -0.36454,2.17424 0.45802,3.16364 -1.15942,1.78212 -0.65569,4.55363 -0.76941,7.7736 -0.10945,3.50582 -0.0531,5.87882 0.76941,8.39636 0.30817,0.90436 0.3645,1.9511 0.64822,2.45906 0.4538,1.07334 3.59087,3.58875 4.86184,4.24016 2.88094,1.61318 7.68644,2.88416 12.77994,2.14879 1.07227,-0.11265 2.03399,-1.01701 3.0478,-1.21467 1.92882,-0.34113 4.52391,0.19766 6.56323,0 0.62273,0.36767 1.12857,0.76089 1.52602,1.35602 0.17001,3.3071 -1.69608,4.60784 -2.60147,6.86926 0.42292,3.3379 -0.56642,7.12429 0.6206,10.32087 0.31137,0.90223 1.80979,3.44741 2.60359,4.32305 0.75879,0.8746 2.37409,2.12222 3.3337,2.28904 1.74919,0.30925 4.69393,-0.67694 6.3921,-1.24441 0.95749,0.68014 3.1052,0.68014 4.43677,0.17003"
       style="fill:#5c0f56;fill-opacity:1;fill-rule:evenodd;stroke:none"
       transform="matrix(0.42306667,0,0,-0.42306667,-126.54003,-55.566962)" />
    <path
       id="path5"
       d="m 557.86507,-230.10783 c 1.07437,0.31133 1.86713,0.90431 2.62695,1.52707 -0.87354,0.59296 -2.62695,-0.25506 -2.62695,-1.52707 m -25.27619,9.13064 c -0.28055,-1.49624 0,-2.65884 -0.16578,-4.24014 -0.79386,-0.73647 -1.64081,-1.29755 -1.46866,-2.60147 -0.79489,-0.76196 -2.43143,-0.64826 -2.91498,-1.69394 1.95324,-1.07541 5.28904,-1.15938 6.55897,0.48247 0.19767,1.04247 -0.24973,2.76724 0.90755,2.90963 1.91817,-0.39424 0.24867,-4.32406 2.14559,-4.77888 0.53982,0.93407 0.36981,3.36549 0,4.26985 0.70773,0.45166 0.70773,1.52498 1.67372,1.75241 0.10733,-0.5101 -0.34323,-1.58344 0.27736,-1.58344 0.61956,0.36877 0.53455,1.92243 0.17005,2.4304 -1.27206,0.28373 -1.27206,-0.62062 -2.2901,-0.62062 -0.56643,1.49948 -2.14987,1.58129 -3.5356,0.79172 -0.50477,0.93302 -0.16473,1.89477 -0.28056,3.30602 -1.13177,0.42617 -1.47078,1.55899 -1.86395,2.34858 -0.56749,-1.27419 0.39317,-2.0946 0.78639,-2.77259 m 10.82884,3.22318 c 0.36771,-0.33901 0.99044,-0.33901 1.67164,-0.33901 0,0.25505 0.0489,0.33901 0.16259,0.50902 -0.56004,0.36876 -1.80659,1.32838 -1.83423,-0.17001 m 21.45794,0.56642 c 0.87564,0.84801 0.56321,3.33579 -0.73116,3.38999 -0.68223,-1.01383 -0.48778,-3.05206 0.73116,-3.38999 m -11.24967,2.94259 c 0.73007,-0.93307 2.11688,-1.27735 2.88521,-2.15197 -0.0606,-0.33901 -0.28162,-0.79062 0,-1.07225 0.95961,0.0808 0.39319,0.73324 0.3082,1.3847 2.2869,1.66631 2.00633,-2.31775 3.02652,-3.78532 0.67478,-0.99575 1.52496,-1.10735 1.86395,-1.84273 0.56218,-0.11264 1.18704,-0.16686 1.69395,-0.30927 1.30286,-2.31771 -2.14452,-3.36552 -0.7864,-5.68326 3.39105,-0.44953 3.89903,5.62804 1.4134,6.5579 0,0.51008 -0.22848,0.73643 -0.34326,1.0765 -2.54198,0.34006 -4.35174,2.96491 -4.12538,5.03185 0.5643,-1.13176 1.43994,-0.2561 2.42931,-0.70561 -0.0542,0.64824 -0.5069,0.93303 -1.0457,1.18384 -0.42509,-0.0266 -0.65249,-0.31032 -1.09987,-0.31032 -0.3964,0.339 -0.68013,0.87672 -1.36026,1.07334 -0.67585,0 -0.50583,-0.90118 -1.32941,-0.76302 -0.98935,0.82466 -2.62698,2.1477 -3.53026,0.31562 m -17.36018,3.04886 c 0.50795,-0.81721 2.71625,-0.7322 3.79063,-0.45163 0.3964,2.28902 -3.67906,2.37513 -3.79063,0.45163 m 25.10507,0.25505 c 0.99257,-0.64931 2.77362,-0.39534 3.98618,-0.14241 -0.39534,1.83637 -1.95324,2.57279 -3.50798,3.19448 0.14241,-0.95856 0,-1.94686 -0.4782,-3.05207 m -20.07109,4.2986 c -0.68013,-0.39744 -1.16259,-2.00955 -0.45166,-2.71626 1.49947,-0.36342 1.6387,2.51862 0.45166,2.71626 m 6.67267,0.76197 c 0.6748,0.50902 1.35597,1.6121 0.90434,2.74279 -1.95003,0.28586 -2.54622,-2.26033 -0.90434,-2.74279 m 4.12644,1.15939 c 1.97767,-0.42294 2.82781,-2.119 5.19872,-2.2338 0.22422,0.79068 1.47496,0.70778 1.64182,1.55687 -0.45378,0.59404 -1.441,0.65036 -1.35596,1.80869 -0.90649,0.19769 -0.67909,-0.73537 -1.52922,-0.62274 -1.46656,1.13073 -3.33264,1.97876 -3.95536,-0.50902 m -27.70129,2.034 c 0.42083,-1.04677 1.24229,-1.69501 1.32625,-3.02338 -0.65036,-1.69496 -3.14026,-0.98935 -4.72156,-1.04356 0.36557,-2.15088 0.78959,-5.46013 4.4102,-4.78 1.18702,-1.83635 2.09138,-3.87247 4.01166,-5.03293 2.65779,1.01808 2.43464,-1.6376 4.69498,-1.52602 1.35495,-0.39427 1.29863,-2.96704 2.57386,-3.05418 1.49839,-0.11159 1.58129,2.63122 1.10095,4.12964 -1.29967,0.53558 -2.46122,0.0829 -3.84695,0.62059 -0.64613,0.25612 -1.1286,1.13176 -1.80764,1.35812 -1.0202,0.34007 -2.11688,-0.0574 -3.04994,0.34007 -1.30288,0.50797 -2.32198,2.48458 -2.32198,4.09775 0.31242,0.73329 1.69605,0.33689 1.86926,1.24228 -0.0574,0.56751 -0.45376,0.76303 -0.90646,0.87674 -0.5643,-0.87674 -2.06377,-2.11902 -2.9118,-0.59192 0.59406,1.26993 1.61317,2.034 1.38576,4.15407 0.39532,0.53772 1.52604,0.36771 1.66737,1.18596 -0.085,1.5303 -2.62699,2.48884 -3.47396,1.04677 m -11.42292,1.10519 c 1.0744,-1.89266 2.25932,0.84699 1.49948,2.26038 -1.21892,-0.0595 -1.33156,-1.24337 -1.49948,-2.26038 m 18.42717,8.96172 c -1.52073,-0.68118 -1.58132,-2.77364 -3.05101,-3.47927 -2.54197,1.01702 -5.37085,1.69713 -8.87563,1.75133 -0.45059,-1.01381 -2.94156,-1.46864 -3.33687,-2.8799 -0.45166,-1.44209 0,-3.39319 0.73326,-4.35388 1.81401,0.79068 1.9798,7.17958 4.46863,3.644 -0.22421,-0.90117 -0.90541,-1.38362 -1.10521,-2.31455 1.0202,-0.68014 0.45802,-2.15196 0.93839,-3.22211 1.865,0 1.04142,2.62594 2.29222,3.22211 0.98405,0.22316 2.23059,0.22316 3.18809,0.50585 1.46756,-1.04462 2.60039,-2.99469 5.14876,-2.06163 1.35704,-1.38895 3.90114,-1.92563 3.70349,-4.35598 1.1615,0 1.89264,1.24439 1.77895,1.95214 -0.11478,1.44209 -3.19554,2.63017 -4.69605,3.50477 -0.8746,0.5356 -1.58235,1.27207 -2.42933,1.6982 -1.01911,0.47928 -2.42931,0.42189 -2.60042,1.52391 0.11371,0.51009 1.02019,0.22742 1.53029,0.25717 1.12751,0.53667 1.12751,2.25824 2.31244,2.76726 0.7938,-0.13924 1.15832,-1.49628 1.95426,-1.15941 0.0287,1.04784 -0.93302,2.43039 -1.95426,2.99999 m -5.98936,1.66629 c -0.70564,-0.0839 -1.52604,0.73434 -2.09246,0.62063 -0.67905,-0.16684 -1.4697,-1.89479 -0.34004,-2.11795 0.6801,0.42189 3.16893,0.98725 4.12962,0 0.92984,0.59405 0.48033,1.63974 -0.34218,2.11795 -0.67694,0.0287 -0.593,-0.50688 -1.35494,-0.62063 m -6.38787,-0.45374 c 0,0.36981 -0.5696,1.16045 -1.18384,1.07437 -0.68546,-0.11264 -1.87354,-3.13496 -1.87354,-3.50474 1.13285,-0.084 3.11477,1.44204 3.05738,2.43037 m 5.03398,9.18805 c 0.10841,-2.57065 2.28691,-2.71306 3.67163,-4.15514 1.07542,-1.15832 1.35918,-2.68756 2.71516,-2.88519 1.55368,1.8682 -1.41337,4.01378 -3.02655,4.69602 -0.70349,1.04675 -1.55366,2.82464 -3.36024,2.34431 m 12.04248,-2.20297 c 0.56639,-0.0563 0.95747,0.0818 1.18384,0.33795 -0.19556,1.32944 -0.73538,2.37405 -1.9522,2.71411 -0.25183,-0.84909 0.71097,-1.92242 0.76836,-3.05206 m -4.41126,-0.45377 c 0.0553,0.99043 -1.07652,1.18811 -1.35919,2.14983 -0.28375,0.81721 0.36663,1.92135 -0.5101,2.63019 -1.86502,-1.47185 -0.25183,-5.14983 1.86929,-4.78002 m 24.53975,-39.15394 c -1.47078,0.96067 -3.39317,-0.39321 -4.92346,-0.73432 -1.83952,-0.45271 -3.47712,-0.4219 -4.24014,-2.00741 -0.34114,-0.73223 -0.16898,-1.55368 -0.45168,-2.25824 -1.24545,-2.97022 -4.12747,-3.73217 -6.39209,-5.62589 -1.52604,-0.28694 -3.33366,0.30925 -5.17106,0 -1.24443,-0.22847 -1.8353,-1.02232 -3.81615,-0.62698 -2.82571,0.51114 -6.70135,2.37831 -7.32304,3.96278 -1.21466,3.04885 2.12117,3.55786 4.1275,4.40909 0.53986,3.05207 -1.66946,2.57172 -4.29327,2.88097 -1.24337,0.1711 -2.68757,0.65144 -3.36663,0.48246 -0.68013,-0.19873 -2.53877,-2.54409 -3.16576,-3.98619 -0.34219,-0.73748 -0.28481,-1.75129 -0.62382,-2.43142 -0.90329,-1.80762 -4.41016,-3.75978 -6.3836,-3.61846 -2.51858,0.084 -2.94048,2.31989 -5.80019,2.68439 -0.64824,1.27307 -0.87566,3.08072 0,3.84584 0.70563,0.59298 2.63229,0.28165 3.50796,0.93304 1.04569,0.73328 3.41764,6.81189 2.60148,9.72367 -0.53773,1.86503 -2.97237,3.50584 -3.36661,5.00317 -0.11054,0.56535 -0.16791,1.8406 -0.16791,2.63123 0,3.67482 0.11159,8.67585 2.31879,11.3921 0.90648,1.15834 2.54301,1.75026 3.67479,2.90967 2.03085,2.20721 2.31562,5.76936 5.31349,6.53026 -0.0829,2.12326 -0.67905,3.61634 -1.07438,5.37193 1.13178,1.38574 2.3188,2.77364 5.17426,2.46227 0.47926,0.6748 -0.59617,1.46862 0.13921,2.11794 1.21892,0.45057 3.45163,0.56643 4.24017,-0.17004 1.61102,0.67906 3.44949,0.96387 5.23164,1.24336 3.13707,0.48246 4.91709,-2.68225 6.07862,-4.77787 0.8459,-1.46971 1.5813,-2.34539 1.8395,-4.69181 0.10842,-1.07331 0.0266,-2.45907 0,-3.84483 0,-1.21255 0.13924,-2.66099 0,-3.47607 -0.53877,-3.02444 -4.8937,-6.39106 -1.0478,-8.36766 2.0085,0.25505 4.35388,-0.39743 6.49945,0 1.13285,0.19766 2.20722,1.10202 2.91177,1.21466 2.29438,0.39637 5.06482,0.22741 6.87142,0 4.46644,-0.59192 7.9723,-3.50584 10.79903,-6.10627 0.0574,-1.77999 1.38577,-3.30921 1.69502,-5.28689 0.45059,-3.16472 0.33688,-8.16895 -0.14133,-11.30602 -0.254,-1.5813 -0.8183,-3.08183 -0.30818,-5.31559 0.22635,-1.0149 1.1275,-1.61104 1.04568,-2.45693 -0.14558,-2.00848 -2.69073,-2.00848 -4.83844,-2.60252 -3.84164,-1.04784 -7.91386,-2.93942 -9.60992,0.90328 0.0839,2.26673 -0.25291,3.39315 0.62274,4.91918 0.79277,1.47075 3.1052,1.97978 1.81294,4.07012"
       style="fill:#5c0f56;fill-opacity:1;fill-rule:evenodd;stroke:none"
       transform="matrix(0.42306667,0,0,-0.42306667,-126.54003,-55.566962)" />
    <path
       id="path6"
       d="m 477.89194,-189.73816 c 0.93303,0.14024 1.21357,1.21678 2.45588,1.04672 1.92558,-0.14241 2.3783,-5.34426 2.60251,-7.9149 0.34435,-4.52284 -0.0563,-16.68219 -4.58127,-12.64076 -0.1105,0.99043 0.0627,1.67056 0.28904,2.29222 -2.15403,1.27206 -6.4505,2.2338 -10.20818,2.60042 -1.89375,0.14241 -4.55473,-0.11263 -3.81934,2.43356 0.59723,2.03508 5.37299,0.73326 7.32092,0.4793 3.02866,-0.50904 4.77892,-1.02019 7.15401,-1.69606 0.50692,0.39639 0.22847,1.55471 0.47821,2.28903 -1.77465,1.32835 -7.79802,2.91072 -11.72894,3.16789 -1.92346,0.13815 -3.8427,-0.085 -3.8427,1.83634 0,0.8746 0.678,1.13072 1.2423,1.6971 5.4814,-0.086 9.92132,-1.1615 14.02434,-2.57275 1.1286,3.83951 -3.90216,4.3241 -6.73212,5.02973 -2.82571,0.65248 -5.71092,0.79277 -7.91602,1.04463 -1.24015,0.62273 -1.12751,3.14024 0.76302,3.19656 3.50903,0.0861 10.204,-1.24231 12.49834,-2.28903"
       style="fill:#5c0f56;fill-opacity:1;fill-rule:evenodd;stroke:none"
       transform="matrix(0.42306667,0,0,-0.42306667,-126.54003,-55.566962)" />
    <path
       id="path7"
       d="m 434.77945,-217.18759 c 5.93513,-5.17636 20.41222,-5.17636 26.34633,0 -7.06799,2.31665 -19.30598,2.31665 -26.34633,0 m -14.36337,2.62697 c 2.06694,-3.92769 4.97662,-6.92556 8.25821,-9.6099 2.20933,0.79169 4.60676,1.441 7.17953,1.83741 -1.017,0.96385 -2.29221,1.52494 -3.67795,2.60251 -1.01065,0.76089 -2.9915,1.89266 -2.90649,3.47498 0.1371,1.66845 3.70349,2.51966 6.10622,3.05524 7.99784,1.77895 17.38357,1.55261 25.01585,-0.11265 2.37512,-0.56747 6.39317,-1.19129 6.39317,-3.08391 0,-1.07331 -1.81296,-2.62908 -2.77258,-3.33366 -1.30074,-1.07757 -2.77257,-1.18915 -3.62059,-2.60251 2.82889,-0.19769 4.97659,-1.10311 7.2922,-1.83741 3.45273,2.4038 6.04886,5.65457 7.91391,9.6099 -14.53022,6.07754 -40.45149,5.65567 -55.18148,0 m 34.3229,-18.45897 c -3.39425,4.41122 7.46117,3.95959 8.81824,6.24757 -1.49628,0.76619 -3.61529,1.13284 -5.62486,1.38469 -2.06269,0.28269 -4.18593,0.51012 -6.10515,0.51012 0.13812,-3.05315 1.49731,-8.25716 -1.78217,-9.19022 -2.3188,-0.58873 -9.43992,0.0574 -9.77784,1.6982 -0.71096,3.76086 5.42613,1.3018 8.19444,1.66737 0.73219,1.64186 0.0861,4.38149 -0.45166,5.82465 -5.4548,0.45373 -10.68326,-0.593 -15.21031,-1.58451 1.35598,-2.11898 5.31663,-1.5834 5.62799,-3.64611 0.76407,-4.54833 -7.09558,0.0574 -8.23053,0.79174 -4.29224,2.4601 -7.43463,5.31452 -10.51642,9.44628 -1.2115,1.60466 -3.67375,4.71727 -3.50372,6.35596 0.17001,1.64183 3.75982,2.57276 6.10624,3.19657 13.71405,3.70031 29.51421,5.11583 44.77875,2.00533 2.06694,-0.42299 4.44102,-1.21576 6.84058,-2.00533 2.00955,-0.62381 5.74066,-1.44316 5.99574,-2.8831 0.31134,-1.89584 -3.19766,-6.36022 -3.98619,-7.46538 -3.48033,-4.66524 -7.06691,-7.57384 -12.47073,-10.0361 -2.53986,-1.12858 -5.42397,-2.40064 -8.7024,-2.31773"
       style="fill:#5c0f56;fill-opacity:1;fill-rule:evenodd;stroke:none"
       transform="matrix(0.42306667,0,0,-0.42306667,-126.54003,-55.566962)" />
    <path
       id="path8"
       d="m 346.69263,-322.5464 c 0,0.33897 -0.1445,0.76193 -0.28371,1.41336 -0.16898,0.59194 -0.30925,1.04251 -0.47929,1.21361 -0.25185,0.39531 -0.73856,0.67904 -1.49733,0.7917 -0.74071,0.11264 -1.63974,0.19873 -2.77152,0.19873 h -16.19865 v 1.38469 l 18.06264,13.34532 h -11.39106 c -1.26993,0 -2.23164,-0.0574 -2.90965,-0.22741 -0.70775,-0.14349 -1.18808,-0.36878 -1.47394,-0.76302 -0.22424,-0.2274 -0.45059,-0.73749 -0.62062,-1.4697 -0.22636,-0.73431 -0.34007,-1.21468 -0.34007,-1.44208 h -1.07544 v 9.01589 h 1.07544 c 0.0574,-0.2816 0.11371,-0.76193 0.34007,-1.38574 0.17003,-0.67801 0.34004,-1.07332 0.45377,-1.24228 0.28373,-0.37088 0.73324,-0.65038 1.29861,-0.73539 0.62166,-0.14349 1.64292,-0.25294 3.11054,-0.25294 h 10.85647 c 0.45058,0 0.9341,0.10945 1.41338,0.28056 0.50583,0.17003 0.84483,0.36556 1.12752,0.65248 0.34112,0.42084 0.62379,0.93093 0.87991,1.52392 0.25398,0.62062 0.36769,1.15939 0.42293,1.58448 h 1.07332 v -6.33259 l -16.85114,-12.38358 h 10.51854 c 1.27739,0 2.29015,0.0329 2.96919,0.22634 0.70456,0.11477 1.16153,0.39744 1.38786,0.73645 0.19663,0.28056 0.39322,0.70669 0.56325,1.38577 0.17003,0.6801 0.28374,1.18487 0.33898,1.4984 h 1.07332 v -9.01697 z"
       style="fill:#5c0f56;fill-opacity:1;fill-rule:nonzero;stroke:none"
       transform="matrix(0.42306667,0,0,-0.42306667,-126.54003,-55.566962)" />
    <path
       id="path9"
       d="m 335.55559,-338.01074 8.22737,4.18275 -8.8501,2.43041 z m -8.03078,-9.7247 -0.96278,9.1009 1.102,0.11373 c 0.14452,-0.79065 0.31455,-1.47184 0.53984,-1.97768 0.16686,-0.51009 0.39319,-0.73433 0.678,-0.73433 0.0595,0 0.16896,0.0266 0.28161,0.0829 0.11585,0.0287 0.25188,0.0584 0.34006,0.14132 l 4.74812,2.29012 -0.75982,7.71831 c -0.76937,0.22635 -1.4155,0.42294 -1.95322,0.50903 -0.56644,0.13921 -1.07013,0.28481 -1.52602,0.33792 -0.50906,0.11054 -0.84912,0.11054 -1.13073,0.1711 h -0.678 c -0.42294,-0.0606 -0.67906,-0.36981 -0.87565,-1.07546 -0.13707,-0.67903 -0.19977,-1.38465 -0.1679,-2.20402 l -1.10308,-0.11478 -0.85228,8.31349 1.102,0.0542 c 0.0606,-0.25505 0.1456,-0.59299 0.28055,-1.017 0.1456,-0.36662 0.31456,-0.67799 0.54094,-0.90329 0.28372,-0.42613 0.62059,-0.68118 0.93301,-0.90753 0.30927,-0.1966 0.76515,-0.36559 1.32945,-0.53879 2.88311,-0.81828 6.10839,-1.66737 9.66837,-2.71095 3.5632,-0.9596 6.73109,-1.83634 9.55469,-2.62804 l 0.11583,-1.21573 -18.2369,-9.27197 c -0.36555,-0.14134 -0.70559,-0.36876 -0.93302,-0.59297 -0.22528,-0.22849 -0.4527,-0.53772 -0.6185,-0.93411 -0.11477,-0.25507 -0.22848,-0.56431 -0.25823,-0.93519 -0.0861,-0.39639 -0.0861,-0.70668 -0.0861,-0.98619 l -1.07225,-0.085 z"
       style="fill:#5c0f56;fill-opacity:1;fill-rule:nonzero;stroke:none"
       transform="matrix(0.42306667,0,0,-0.42306667,-126.54003,-55.566962)" />
    <path
       id="path10"
       d="m 353.75957,-370.83208 c -0.0574,0.25395 -0.22742,0.7056 -0.51114,1.27097 -0.27843,0.51007 -0.56749,0.90436 -0.7609,1.12965 -0.3103,0.28372 -0.8746,0.42401 -1.63867,0.42401 -0.71095,-0.0276 -1.66844,-0.16899 -2.77363,-0.42401 l -15.80121,-3.47818 -0.28163,1.3039 14.78315,16.96167 -11.13704,-2.43143 c -1.24655,-0.25507 -2.1764,-0.56535 -2.80021,-0.8746 -0.64507,-0.34327 -1.07334,-0.68013 -1.29967,-1.05208 -0.1711,-0.27948 -0.28481,-0.81508 -0.28481,-1.5526 -0.0542,-0.81935 -0.0542,-1.32623 0,-1.49628 l -1.07012,-0.28268 -1.97982,8.84908 1.07546,0.25184 c 0.11158,-0.28161 0.33792,-0.70563 0.65144,-1.32625 0.30923,-0.62591 0.53772,-0.95961 0.73219,-1.10518 0.36876,-0.33793 0.81827,-0.45272 1.44208,-0.45272 0.61742,0 1.64293,0.11479 3.05417,0.45272 l 10.6004,2.34855 c 0.48033,0.11372 0.93305,0.28056 1.3868,0.5356 0.39534,0.28268 0.70459,0.59086 0.90011,0.90116 0.28481,0.42827 0.45377,1.04998 0.56751,1.67269 0.0574,0.70883 0.0871,1.24441 0.0308,1.60891 l 1.07015,0.22635 1.38575,-6.13388 -13.79272,-15.80333 10.23375,2.32093 c 1.3018,0.28054 2.19978,0.53561 2.88415,0.87779 0.64931,0.28161 1.01487,0.59192 1.18703,0.98724 0.10947,0.31137 0.22317,0.8459 0.25079,1.49629 0.0308,0.67905 0.0308,1.21465 -0.0276,1.49732 l 1.07332,0.28377 1.95426,-8.79169 -1.10411,-0.19553 z"
       style="fill:#5c0f56;fill-opacity:1;fill-rule:nonzero;stroke:none"
       transform="matrix(0.42306667,0,0,-0.42306667,-126.54003,-55.566962)" />
    <path
       id="path11"
       d="m 360.65643,-383.80757 c -0.16789,0.25183 -0.39741,0.56322 -0.64822,0.87564 -0.2827,0.30818 -0.53879,0.56428 -0.76833,0.79063 -0.30818,0.25505 -0.58978,0.3932 -0.89692,0.31136 -0.28798,-0.0308 -0.62592,-0.11369 -0.91179,-0.31136 l -11.36341,-6.50364 c -0.5887,-0.33583 -1.27203,-0.59087 -2.08711,-0.70458 -0.7949,-0.14346 -1.58555,-0.14346 -2.37831,0 -0.90117,0.22637 -1.75026,0.53453 -2.54303,1.07332 -0.7354,0.5377 -1.38682,1.33156 -1.95323,2.26355 -0.81828,1.41231 -1.1339,2.82887 -0.81828,4.26455 0.339,1.38682 1.13176,2.46333 2.56958,3.2561 0.57069,0.33369 1.21893,0.50692 1.89585,0.50692 0.62169,-0.0595 1.13285,-0.39639 1.52921,-1.017 0.25295,-0.56643 0.36666,-1.01699 0.22638,-1.52709 -0.0585,-0.51011 -0.39639,-0.90648 -0.8746,-1.21893 -0.30924,-0.1679 -0.65569,-0.27947 -0.99468,-0.33794 -0.339,-0.0553 -0.64825,-0.0553 -0.95644,-0.0553 -0.31455,0.0287 -0.62379,0.0287 -1.01913,0.0287 -0.36876,0.0266 -0.70456,0 -0.96492,-0.0287 -0.16682,-0.34112 -0.27949,-0.79063 -0.27949,-1.35705 0,-0.53664 0.19555,-1.10199 0.56218,-1.77893 0.40168,-0.6801 0.90753,-1.10625 1.41658,-1.33258 0.53558,-0.25295 1.13177,-0.33478 1.75131,-0.25295 0.56642,0.0574 1.24547,0.25295 1.98405,0.5643 0.73112,0.34113 1.52283,0.68013 2.34538,1.1615 l 10.14553,5.85224 c 0.28163,0.19766 0.5356,0.39425 0.67909,0.56642 0.1711,0.25186 0.22633,0.56004 0.22633,0.98513 -0.0308,0.36876 -0.14454,0.79382 -0.28161,1.27099 -0.17427,0.45588 -0.34218,0.79489 -0.4814,1.1073 l 0.99042,0.53456 4.8363,-8.42398 -0.93729,-0.56322 z"
       style="fill:#5c0f56;fill-opacity:1;fill-rule:nonzero;stroke:none"
       transform="matrix(0.42306667,0,0,-0.42306667,-126.54003,-55.566962)" />
    <path
       id="path12"
       d="m 352.88391,-409.08273 -6.02653,7.88519 0.85334,0.68118 c 0.22316,-0.19659 0.51011,-0.5356 0.82042,-0.93306 0.36661,-0.36874 0.65036,-0.6493 0.81932,-0.79277 0.34006,-0.16789 0.62062,-0.2274 0.90117,-0.2274 0.28589,0.0595 0.59723,0.17426 0.9065,0.39636 l 12.71722,9.72793 c 0.288,0.19871 0.51541,0.4219 0.65463,0.67799 0.11158,0.22529 0.11158,0.56643 0,1.01594 -0.11267,0.33795 -0.25188,0.7354 -0.44845,1.15941 -0.20618,0.42612 -0.37409,0.73433 -0.54093,1.01806 l 0.87671,0.68012 6.02019,-7.89053 -0.90222,-0.67479 c -0.16791,0.2508 -0.45271,0.50796 -0.76621,0.8172 -0.30926,0.34007 -0.61743,0.59299 -0.93199,0.7917 -0.27949,0.22638 -0.6185,0.31137 -0.93306,0.25508 -0.31242,-0.0574 -0.59086,-0.19555 -0.87564,-0.39534 l -12.69496,-9.72471 c -0.24974,-0.1966 -0.47712,-0.42189 -0.59402,-0.70883 -0.11158,-0.31138 -0.13816,-0.59192 -0.0584,-1.01276 0.0893,-0.1732 0.26031,-0.56641 0.45586,-0.96385 0.22847,-0.47821 0.42718,-0.85016 0.62274,-1.10202 l -0.87566,-0.6801 z"
       style="fill:#5c0f56;fill-opacity:1;fill-rule:nonzero;stroke:none"
       transform="matrix(0.42306667,0,0,-0.42306667,-126.54003,-55.566962)" />
    <path
       id="path13"
       d="m 390.85083,-416.91267 c -0.22953,0.19766 -0.62273,0.45268 -1.13283,0.76407 -0.56639,0.2816 -0.96068,0.45376 -1.29754,0.50903 -0.45377,0.0563 -0.96496,-0.11266 -1.58766,-0.53879 -0.56112,-0.48034 -1.29755,-1.10094 -2.0287,-1.92239 l -11.2008,-11.70241 -0.95961,0.92988 2.76938,22.30698 -7.85545,-8.22632 c -0.8799,-0.95961 -1.49945,-1.66737 -1.86822,-2.31875 -0.339,-0.59511 -0.48034,-1.15729 -0.45167,-1.55046 0,-0.37302 0.22107,-0.85126 0.62488,-1.50054 0.39322,-0.65144 0.67375,-1.07225 0.84699,-1.24655 l -0.73752,-0.79065 -6.58765,6.2784 0.79384,0.75979 c 0.19553,-0.19871 0.59192,-0.42186 1.21466,-0.73326 0.62486,-0.34006 1.01487,-0.53665 1.24229,-0.53665 0.48352,-0.0287 0.96175,0.11267 1.4697,0.51012 0.48141,0.33793 1.24548,0.98723 2.20828,2.03186 l 7.577,7.89051 c 0.27951,0.36342 0.56112,0.70456 0.78642,1.18702 0.19554,0.47715 0.29012,0.8746 0.25822,1.24229 -0.0308,0.56535 -0.19871,1.0999 -0.48352,1.69713 -0.30925,0.65039 -0.56112,1.07118 -0.84802,1.41126 l 0.73326,0.7949 4.58234,-4.38469 -2.5983,-20.74801 7.23377,7.577 c 0.8778,0.95959 1.52816,1.75236 1.86822,2.31983 0.33475,0.61745 0.45059,1.12647 0.45059,1.52284 -0.11584,0.31137 -0.33793,0.82041 -0.678,1.38683 -0.34006,0.5664 -0.61958,0.9883 -0.84485,1.27098 l 0.7322,0.79169 6.50047,-6.19126 z"
       style="fill:#5c0f56;fill-opacity:1;fill-rule:nonzero;stroke:none"
       transform="matrix(0.42306667,0,0,-0.42306667,-126.54003,-55.566962)" />
    <path
       id="path14"
       d="m 403.346,-439.64052 c -0.22634,0.11051 -0.57171,0.25504 -0.90752,0.45268 -0.39533,0.16898 -0.70351,0.28057 -0.98619,0.33796 -0.37301,0 -0.65569,-0.0276 -0.96386,-0.19449 -0.22423,-0.14347 -0.47715,-0.3985 -0.70671,-0.73853 l -0.96066,-1.41339 c -0.68224,-1.04144 -1.18703,-1.72581 -1.38574,-2.09457 -0.254,-0.39533 -0.42191,-0.6472 -0.53456,-0.9001 -1.52922,0.2529 -2.93836,0.59085 -4.24226,1.10202 -1.30288,0.53665 -2.54624,1.10307 -3.62061,1.80764 -1.15726,0.8491 -2.14665,1.80973 -2.9086,2.96701 -0.82146,1.18915 -1.32519,2.43357 -1.58237,3.7598 -0.25928,1.44421 -0.25928,2.85654 0.0861,4.3273 0.27734,1.47078 0.90115,2.99787 1.92027,4.40914 0.90224,1.41442 2.03612,2.54408 3.30818,3.42292 1.26992,0.87354 2.62698,1.46758 4.03824,1.78002 1.38681,0.31138 2.83313,0.31138 4.26991,0.0319 1.43994,-0.28693 2.85332,-0.88204 4.10095,-1.72688 1.01912,-0.70775 1.8671,-1.44313 2.48665,-2.23592 0.56429,-0.763 1.01807,-1.47183 1.41127,-2.23271 l 1.07439,0.5377 1.04782,-0.73645 -4.21359,-6.4718 -1.01483,0.73433 c 0.28371,0.85016 0.50791,1.61211 0.67476,2.51645 0.22741,0.87569 0.28692,1.69607 0.22741,2.5728 -0.0563,0.81827 -0.27841,1.60785 -0.67476,2.31668 -0.36982,0.70668 -1.01912,1.38681 -1.80764,1.95216 -0.96282,0.59297 -1.87249,0.99044 -2.85866,1.10094 -0.98937,0.11372 -2.00424,0 -3.02443,-0.39638 -1.01912,-0.33793 -2.03295,-0.96068 -2.99574,-1.89372 -1.02019,-0.87566 -1.98299,-1.92136 -2.88521,-3.22101 -0.76197,-1.16049 -1.35814,-2.34538 -1.77895,-3.58769 -0.42297,-1.2189 -0.59617,-2.40593 -0.59617,-3.50794 0.0287,-1.1052 0.2869,-2.17958 0.79275,-3.16792 0.50479,-0.93304 1.27312,-1.781 2.2646,-2.48772 0.78748,-0.50796 1.52179,-0.90115 2.31456,-1.01806 0.79064,-0.16683 1.41339,-0.2816 1.80765,-0.16683 0.39744,0.42189 0.74176,0.79064 1.04887,1.27099 0.30925,0.45162 0.5898,0.84905 0.78852,1.12853 l 0.65356,1.017 c 0.2827,0.36876 0.45166,0.70989 0.50905,1.04889 0.11157,0.33688 0.0807,0.70561 -0.17216,1.04567 -0.2253,0.31139 -0.50373,0.70671 -0.93093,1.07121 -0.4814,0.39744 -0.8204,0.70989 -1.10307,0.85016 l 0.62167,1.01805 8.05413,-5.45481 -0.6461,-0.93302 z"
       style="fill:#5c0f56;fill-opacity:1;fill-rule:nonzero;stroke:none"
       transform="matrix(0.42306667,0,0,-0.42306667,-126.54003,-55.566962)" />
    <path
       id="path15"
       d="m 458.75493,-443.2335 c -0.28797,0 -0.68118,-0.0574 -1.2444,-0.19446 -0.56535,-0.11478 -1.01915,-0.25823 -1.38469,-0.48246 -0.36876,-0.25401 -0.59511,-0.76089 -0.71201,-1.49946 -0.13601,-0.73432 -0.2221,-1.63762 -0.2221,-2.71201 v -9.61314 c 0,-1.18811 -0.25611,-2.25929 -0.763,-3.16577 -0.53669,-0.93198 -1.1881,-1.66846 -2.00638,-2.26143 -0.79596,-0.53664 -1.67163,-0.9883 -2.60361,-1.18385 -0.90329,-0.28371 -1.74814,-0.39956 -2.60147,-0.39956 -1.30075,0 -2.51329,0.17217 -3.53348,0.53772 -1.04461,0.33794 -1.89159,0.81829 -2.62802,1.41445 -0.67801,0.59405 -1.21361,1.24122 -1.52606,2.03825 -0.39317,0.7609 -0.56427,1.54942 -0.56427,2.373 v 13.00104 c 0,0.42401 -0.0563,0.70987 -0.16898,0.96065 -0.11052,0.2561 -0.36769,0.48247 -0.73645,0.65249 -0.22741,0.1679 -0.56642,0.31032 -0.99043,0.39638 -0.42293,0.0808 -0.76089,0.13816 -0.98831,0.13816 v 1.12963 h 9.16151 v -1.12963 c -0.28586,0 -0.65356,-0.0244 -1.07758,-0.11265 -0.45057,-0.0818 -0.75984,-0.19659 -0.96069,-0.25399 -0.39318,-0.0861 -0.62271,-0.33792 -0.70456,-0.59084 -0.14134,-0.34221 -0.19871,-0.68118 -0.19871,-1.01702 v -12.1604 c 0,-0.56428 0.0574,-1.21467 0.19871,-1.8374 0.13923,-0.65037 0.39638,-1.24124 0.76195,-1.83741 0.42189,-0.56324 0.96068,-1.01593 1.66843,-1.35599 0.70671,-0.36665 1.60893,-0.59404 2.85972,-0.59404 1.1254,0 2.0882,0.22739 2.87675,0.59404 0.73855,0.34006 1.3836,0.79275 1.8087,1.38576 0.39637,0.5664 0.73748,1.15727 0.93197,1.78108 0.14241,0.62062 0.25502,1.18701 0.25502,1.83846 v 9.02015 c 0,1.18384 -0.11261,2.12009 -0.25502,2.85335 -0.19449,0.70561 -0.4219,1.21463 -0.70459,1.44101 -0.39424,0.25503 -0.90434,0.45483 -1.49838,0.62167 -0.65567,0.11157 -1.1286,0.22422 -1.46864,0.22422 v 1.12963 h 9.01907 z"
       style="fill:#5c0f56;fill-opacity:1;fill-rule:nonzero;stroke:none"
       transform="matrix(0.42306667,0,0,-0.42306667,-126.54003,-55.566962)" />
    <path
       id="path16"
       d="m 484.39244,-432.03906 c -0.25504,-0.16683 -0.65141,-0.39212 -1.09774,-0.78957 -0.51754,-0.42509 -0.85122,-0.73433 -1.02126,-0.98935 -0.22635,-0.36876 -0.25292,-0.90544 -0.0563,-1.61212 0.14346,-0.76196 0.45379,-1.63657 0.9001,-2.65675 l 6.47499,-14.81292 -1.26993,-0.59402 -19.44943,11.22311 4.55153,-10.43034 c 0.47821,-1.16153 0.93091,-2.0372 1.38467,-2.5728 0.42403,-0.62273 0.85018,-0.93196 1.24657,-1.0478 0.33795,-0.14135 0.8746,-0.14135 1.60785,0 0.76835,0.084 1.27418,0.20085 1.49733,0.28266 l 0.45166,-1.01489 -8.33686,-3.6514 -0.45164,1.05101 c 0.2816,0.11051 0.64822,0.42189 1.21466,0.87566 0.50797,0.39638 0.81934,0.73325 0.93199,0.90117 0.22635,0.39851 0.25717,0.93729 0.14241,1.55579 -0.11159,0.59509 -0.45166,1.49945 -1.01806,2.8852 l -4.3528,9.95108 c -0.22742,0.42294 -0.45484,0.87566 -0.79064,1.21466 -0.34221,0.34111 -0.67695,0.59299 -1.07654,0.73327 -0.45162,0.11796 -1.0478,0.2561 -1.69711,0.19978 -0.70563,-0.0542 -1.24336,-0.14241 -1.60785,-0.31244 l -0.42614,1.04572 5.76724,2.5175 18.09128,-10.45903 -4.18168,9.63864 c -0.51007,1.15939 -0.99043,2.03504 -1.41337,2.62804 -0.42719,0.59616 -0.82356,0.90861 -1.21785,0.9628 -0.36449,0.11265 -0.8204,0.11265 -1.52603,0 -0.64931,-0.1137 -1.1594,-0.25397 -1.49414,-0.36664 l -0.42722,1.04676 8.22527,3.53344 0.42506,-0.93622 z"
       style="fill:#5c0f56;fill-opacity:1;fill-rule:nonzero;stroke:none"
       transform="matrix(0.42306667,0,0,-0.42306667,-126.54003,-55.566962)" />
    <path
       id="path17"
       d="m 506.49756,-444.81479 -8.93086,-4.35492 -0.48142,0.99256 c 0.25716,0.11158 0.59299,0.36665 1.07546,0.59193 0.45059,0.28267 0.76515,0.53772 0.90222,0.68013 0.22955,0.30817 0.39851,0.5919 0.42401,0.8746 0.0287,0.28372 -0.0255,0.62061 -0.19446,0.93198 l -7.07331,14.36229 c -0.10734,0.339 -0.30926,0.62381 -0.50477,0.79277 -0.22635,0.14027 -0.56642,0.19871 -1.01594,0.16896 -0.33901,-0.0287 -0.73856,-0.11157 -1.18809,-0.16896 -0.5101,-0.14241 -0.85015,-0.25505 -1.1307,-0.36983 l -0.51224,0.99047 8.96387,4.35276 0.48137,-0.99041 c -0.2816,-0.14028 -0.59299,-0.36771 -0.99043,-0.59404 -0.36449,-0.22425 -0.70775,-0.48037 -0.93519,-0.7588 -0.28263,-0.25501 -0.44845,-0.62484 -0.44845,-0.93621 0,-0.25186 0.10945,-0.56323 0.22104,-0.87566 l 7.01698,-14.3602 c 0.13817,-0.31138 0.3369,-0.56642 0.61742,-0.70563 0.22743,-0.19872 0.56643,-0.25506 0.96386,-0.22955 0.22638,0 0.59195,0.0595 1.07334,0.22955 0.45589,0.11158 0.87565,0.2529 1.18704,0.3677 z"
       style="fill:#5c0f56;fill-opacity:1;fill-rule:nonzero;stroke:none"
       transform="matrix(0.42306667,0,0,-0.42306667,-126.54003,-55.566962)" />
    <path
       id="path18"
       d="m 517.33067,-410.1284 c -0.20082,-0.22316 -0.45906,-0.48139 -0.68332,-0.79277 -0.22421,-0.30924 -0.36662,-0.67481 -0.44949,-0.93198 -0.13921,-0.39425 -0.22952,-0.73218 -0.13921,-1.15939 0.0542,-0.36664 0.13921,-0.84803 0.25184,-1.32306 0.50586,-1.75664 1.29965,-4.41548 2.37509,-7.97446 1.12755,-3.59297 2.26037,-7.32411 3.44633,-11.22632 l -0.98935,-0.79065 c -3.6748,2.17536 -7.20613,4.27098 -10.60144,6.36235 -3.44845,2.03403 -5.73642,3.39002 -6.95108,4.12542 -0.28587,0.14024 -0.59512,0.28586 -0.93518,0.36874 -0.31242,0.0266 -0.64824,0.0266 -1.04463,0 -0.34006,-0.0574 -0.6801,-0.14136 -0.98935,-0.28165 -0.3082,-0.14448 -0.59511,-0.31133 -0.84911,-0.42398 l -0.70773,0.84589 7.1264,5.6812 0.73433,-0.84485 c -0.62165,-0.54093 -1.07544,-1.01914 -1.41549,-1.41553 -0.33477,-0.42296 -0.39638,-0.73643 -0.22106,-0.95961 0.0542,-0.11159 0.17005,-0.2253 0.27736,-0.28479 0.14134,-0.11159 0.23061,-0.19871 0.34006,-0.25506 0.90756,-0.56217 2.43359,-1.41126 4.55154,-2.68331 2.12433,-1.32945 5.11368,-3.08075 9.01908,-5.37195 -0.62383,1.97771 -1.30077,4.32628 -2.12223,7.01062 -0.84799,2.68544 -1.43991,4.49626 -1.78317,5.48458 -0.30498,0.98939 -0.56534,1.58236 -0.73007,1.86503 -0.19766,0.34006 -0.36662,0.59192 -0.48032,0.79386 -0.14346,0.19766 -0.37301,0.2837 -0.65251,0.255 -0.27843,0 -0.56428,-0.0573 -0.90434,-0.19977 -0.33688,-0.14453 -0.68013,-0.31032 -1.01489,-0.50903 -0.28373,-0.16898 -0.56853,-0.34006 -0.85123,-0.5356 l -0.73004,0.87566 6.43989,5.11471 z"
       style="fill:#5c0f56;fill-opacity:1;fill-rule:nonzero;stroke:none"
       transform="matrix(0.42306667,0,0,-0.42306667,-126.54003,-55.566962)" />
    <path
       id="path19"
       d="m 542.00223,-402.94777 4.72151,-4.46435 -11.75653,-14.08072 -0.84805,0.67906 c 0.19873,0.25612 0.42297,0.62062 0.73858,1.04568 0.25186,0.45378 0.42296,0.73326 0.44847,0.96282 0.11156,0.31137 0.0829,0.58978 0,0.84804 -0.11265,0.28054 -0.339,0.53771 -0.62275,0.76194 l -12.18167,10.20612 c -0.25824,0.22529 -0.53666,0.36981 -0.82467,0.42401 -0.25187,0.084 -0.56109,0.0553 -0.95108,-0.11476 -0.2912,-0.11264 -0.57388,-0.36557 -0.97026,-0.62061 -0.39532,-0.3114 -0.67375,-0.56536 -0.90434,-0.7641 l -0.81828,0.65252 10.94044,13.17207 4.07224,-3.42189 -0.73751,-0.90116 c -0.73113,0.36449 -1.69499,0.56322 -2.77044,0.56322 -1.15943,0.0319 -1.94898,-0.16685 -2.40065,-0.56322 -0.25609,-0.22741 -0.48349,-0.51011 -0.81932,-0.79383 -0.28479,-0.30927 -0.62274,-0.73432 -1.02019,-1.1594 l -2.14984,-2.68647 6.67268,-5.59508 1.64292,1.89479 c 0.48034,0.59192 0.81723,1.10094 0.95855,1.46756 0.11266,0.39853 0.11266,0.82147 0,1.21574 -0.0563,0.39533 -0.25505,0.79384 -0.56321,1.27202 -0.28163,0.4272 -0.5643,0.81827 -0.85337,1.16257 l 0.73966,0.87565 6.61313,-5.54403 -0.70668,-0.84696 c -0.42614,0.22742 -0.90224,0.50797 -1.43786,0.70668 -0.51111,0.2253 -0.96385,0.34008 -1.30387,0.36769 -0.50907,0 -0.96282,-0.10945 -1.30075,-0.36769 -0.39428,-0.19871 -0.75878,-0.59193 -1.18705,-1.15941 l -1.64081,-1.865 5.14771,-4.2423 c 0.51116,-0.44845 0.90327,-0.73327 1.2731,-0.9033 0.36452,-0.19551 0.70566,-0.19551 1.0457,-0.16896 0.28374,0.0871 0.64823,0.31137 1.01486,0.62381 0.28269,0.30817 0.73645,0.84802 1.32627,1.52284 0.17533,0.25823 0.48776,0.53879 0.82573,1.01805 0.39105,0.36878 0.67474,0.7641 0.8703,1.10414 0.25927,0.31244 0.42827,0.73539 0.62378,1.12859 0.19766,0.34113 0.25612,0.68224 0.19766,0.9065 0,0.7088 -0.28055,1.55578 -0.75876,2.65778 -0.42715,1.01912 -0.797,1.72263 -1.04778,2.17534 z"
       style="fill:#5c0f56;fill-opacity:1;fill-rule:nonzero;stroke:none"
       transform="matrix(0.42306667,0,0,-0.42306667,-126.54003,-55.566962)" />
    <path
       id="path20"
       d="m 541.9512,-381.68645 c -1.18701,0.64716 -2.2922,0.81931 -3.36871,0.50583 -1.01596,-0.30816 -1.88948,-1.10304 -2.53986,-2.3177 l -1.29968,-2.34538 8.36339,-4.46969 0.9628,1.78533 c 0.67906,1.24441 0.84804,2.51541 0.51115,3.78851 -0.36767,1.29755 -1.24443,2.25717 -2.62909,3.0531 m 18.37293,-0.68118 -2.8257,-5.14343 c -2.45908,-0.22744 -4.61211,-0.42507 -6.41976,-0.68015 -1.8087,-0.16894 -3.73007,-0.45376 -5.70987,-0.78956 l -1.09986,-1.98192 6.13385,-3.33475 c 0.33796,-0.16686 0.64931,-0.2816 0.9033,-0.31136 0.34113,0 0.62381,0.085 0.93411,0.34006 0.16686,0.14241 0.3677,0.42508 0.64612,0.78958 0.28481,0.34323 0.5101,0.70882 0.65357,1.02019 l 0.98936,-0.53773 -4.46544,-8.2263 -0.96281,0.53452 c 0.1137,0.22741 0.22636,0.56641 0.42189,1.02126 0.1998,0.42292 0.2561,0.70454 0.2827,0.90222 0.0319,0.34004 -0.0266,0.59723 -0.19875,0.88095 -0.16577,0.25083 -0.42084,0.44954 -0.73007,0.67377 l -14.08067,7.63335 c -0.28267,0.1137 -0.62168,0.22741 -0.90648,0.28372 -0.30925,0.0574 -0.6185,-0.0563 -0.90436,-0.28372 -0.22316,-0.22635 -0.45056,-0.51012 -0.70563,-0.81936 -0.28055,-0.31137 -0.53454,-0.59191 -0.65144,-0.84907 l -0.98829,0.48352 4.89051,9.01378 c 0.45271,0.82355 0.9086,1.58551 1.47399,2.12214 0.56213,0.6504 1.187,1.15942 1.89157,1.58132 0.6493,0.37086 1.38577,0.53877 2.18066,0.56642 0.72902,0 1.55255,-0.1658 2.36764,-0.64825 0.76835,-0.42614 1.36132,-0.9065 1.80657,-1.4421 0.46016,-0.50902 0.76941,-1.10202 0.96495,-1.8087 0.1732,-0.62269 0.22741,-1.30281 0.22741,-2.03608 -0.0542,-0.67693 -0.17214,-1.47184 -0.33582,-2.26142 1.80766,0.25503 3.33369,0.48142 4.5207,0.61957 1.18703,0.17001 2.65463,0.3985 4.41127,0.62379 0.76087,0.11264 1.38573,0.2529 1.77893,0.39637 0.47823,0.22743 0.82041,0.39427 1.16155,0.64933 0.28265,0.20191 0.50586,0.45377 0.79172,0.76195 0.24865,0.3156 0.41976,0.59618 0.56321,0.79384 z"
       style="fill:#5c0f56;fill-opacity:1;fill-rule:nonzero;stroke:none"
       transform="matrix(0.42306667,0,0,-0.42306667,-126.54003,-55.566962)" />
    <path
       id="path21"
       d="m 554.64511,-363.51115 c 0.62059,0.33792 1.24123,0.50793 1.89266,0.56427 0.67693,0.0574 1.38574,0 2.17425,-0.22635 1.92455,-0.4516 3.27948,-1.55576 4.13176,-3.27837 0.84485,-1.72478 1.01489,-3.58981 0.47609,-5.68332 -0.25187,-0.90222 -0.64612,-1.86397 -1.16151,-2.73961 -0.56217,-0.93518 -1.12752,-1.58767 -1.75135,-2.17747 l 0.93732,-0.932 -0.31349,-1.24334 -7.34744,1.72156 0.33792,1.21786 c 0.96173,0 1.80656,0.11159 2.65567,0.28162 0.82251,0.11157 1.58552,0.36769 2.37512,0.73431 0.73749,0.39746 1.3549,0.90647 1.89476,1.4697 0.5388,0.62169 0.90225,1.35812 1.15941,2.3188 0.16685,0.68121 0.25825,1.35707 0.19661,1.86717 -0.0298,0.59192 -0.19661,1.04463 -0.45377,1.43994 -0.25293,0.45591 -0.58874,0.79067 -0.93092,1.07653 -0.44954,0.25185 -0.95856,0.47819 -1.52179,0.64825 -0.85441,0.17107 -1.72902,0.17107 -2.57701,-0.10841 -0.87888,-0.3167 -1.61,-0.9086 -2.23166,-1.75771 -0.45482,-0.59297 -0.93304,-1.24228 -1.47077,-2.03506 -0.50795,-0.7067 -1.01805,-1.41124 -1.46865,-1.97766 -0.84694,-1.04676 -1.78211,-1.75133 -2.85544,-2.2051 -1.04889,-0.45376 -2.29117,-0.47928 -3.67479,-0.13815 -0.82147,0.2189 -1.52817,0.6174 -2.17855,1.12752 -0.59084,0.5356 -1.10093,1.102 -1.47183,1.89477 -0.39108,0.70671 -0.61847,1.52498 -0.70351,2.34325 -0.085,0.90648 -0.0308,1.75453 0.19872,2.63231 0.28058,0.96173 0.61743,1.83314 1.12755,2.51326 0.50795,0.70666 1.01698,1.33048 1.6429,1.81186 l -0.90648,0.93516 0.28056,1.24021 7.15515,-1.75028 -0.3114,-1.2476 c -0.85014,0 -1.69606,-0.0266 -2.51645,-0.10945 -0.82042,-0.0861 -1.55261,-0.25611 -2.29544,-0.53983 -0.70137,-0.28375 -1.26458,-0.70456 -1.80339,-1.24549 -0.50903,-0.53771 -0.848,-1.21253 -1.13177,-2.11689 -0.23059,-0.99149 -0.11368,-1.89691 0.28377,-2.68649 0.45162,-0.81934 1.12963,-1.35811 1.97871,-1.61211 0.93094,-0.25504 1.74919,-0.19871 2.48671,0.0595 0.73326,0.25187 1.38577,0.78747 1.97981,1.46651 0.53348,0.64931 1.01805,1.30076 1.47078,1.95113 0.44951,0.65143 0.90222,1.24226 1.35811,1.83738 0.39319,0.50904 0.84698,1.04675 1.32625,1.50266 0.48033,0.4474 0.98831,0.87459 1.55682,1.15514"
       style="fill:#5c0f56;fill-opacity:1;fill-rule:nonzero;stroke:none"
       transform="matrix(0.42306667,0,0,-0.42306667,-126.54003,-55.566962)" />
    <path
       id="path22"
       d="m 567.75983,-348.86935 -1.35491,-9.83948 -1.1031,0.14558 c 0.0298,0.33795 0.0553,0.70351 0.084,1.24125 0.0531,0.53875 0.0287,0.87776 -0.0287,1.16046 -0.0829,0.31134 -0.25185,0.59297 -0.45269,0.79489 -0.19659,0.19445 -0.5356,0.30713 -0.93307,0.3645 l -15.86177,2.12009 c -0.36557,0.0287 -0.64614,0 -0.89905,0 -0.25717,-0.11266 -0.54198,-0.34006 -0.73538,-0.76197 -0.14452,-0.28268 -0.34113,-0.62272 -0.48248,-1.10202 -0.1679,-0.42615 -0.33687,-0.82252 -0.39425,-1.13389 l -1.07545,0.14132 1.35918,9.83947 1.07121,-0.1424 c -0.0266,-0.28162 -0.0266,-0.67801 -0.0266,-1.13069 0,-0.4793 0.0266,-0.84804 0.0861,-1.21256 0.085,-0.37088 0.24972,-0.65138 0.50688,-0.85118 0.25294,-0.1679 0.56644,-0.28162 0.9012,-0.28162 l 15.83308,-2.20614 c 0.34113,-0.0563 0.62169,0 0.90331,0.0871 0.31456,0.10946 0.57173,0.36771 0.73962,0.73221 0.11266,0.17002 0.28056,0.5101 0.42189,0.96278 0.19768,0.48035 0.28057,0.90544 0.33689,1.24333 l 1.10411,-0.17106 z"
       style="fill:#5c0f56;fill-opacity:1;fill-rule:nonzero;stroke:none"
       transform="matrix(0.42306667,0,0,-0.42306667,-126.54003,-55.566962)" />
    <path
       id="path23"
       d="m 553.73648,-322.68985 -0.0542,-1.0446 c -0.3996,-0.0882 -0.84698,-0.25612 -1.33157,-0.48247 -0.5356,-0.22742 -1.04464,-0.48353 -1.4984,-0.73434 -0.44952,-0.31241 -0.90224,-0.62273 -1.24548,-1.01699 -0.39214,-0.339 -0.6153,-0.68013 -0.67481,-1.0478 -0.0553,-0.31034 -0.11158,-0.70778 -0.16791,-1.18599 0,-0.48139 -0.0553,-0.95961 -0.0553,-1.35707 l -0.0616,-0.93196 17.67048,-0.62275 c 0.33687,0 0.6514,0.0276 0.93302,0.16898 0.34114,0.11157 0.50799,0.39744 0.67589,0.73856 0.1137,0.16366 0.22953,0.5356 0.39746,1.15728 0.1126,0.58873 0.19764,1.01593 0.22526,1.35494 l 1.10523,-0.0298 -0.4251,-10.42929 -1.07332,0.0542 c 0,0.25716 -0.0595,0.76514 -0.0882,1.33155 -0.0276,0.62167 -0.085,0.99042 -0.19768,1.2423 -0.11156,0.31135 -0.27841,0.62486 -0.53346,0.78955 -0.25398,0.17216 -0.5983,0.25825 -1.01911,0.28694 l -17.78419,0.67694 -0.051,-0.93305 v -1.18704 c 0,-0.45056 0,-0.93409 0.051,-1.32941 0.0319,-0.36875 0.2306,-0.73432 0.56747,-1.12965 0.34006,-0.36769 0.76407,-0.73433 1.21361,-1.04567 0.4272,-0.31247 0.93623,-0.64827 1.44738,-0.90544 0.5069,-0.25398 0.95962,-0.42296 1.29968,-0.50903 l -0.0585,-1.10202 -5.99146,0.22424 0.73114,19.25389 5.99358,-0.25505 z"
       style="fill:#5c0f56;fill-opacity:1;fill-rule:nonzero;stroke:none"
       transform="matrix(0.42306667,0,0,-0.42306667,-126.54003,-55.566962)" />
    <path
       id="path24"
       d="m 549.15733,-298.57623 c 0.0287,-0.13921 0.11264,-0.45055 0.17107,-0.8512 0.16899,-0.3645 0.2795,-0.67587 0.39534,-0.81721 0.22742,-0.42295 0.42403,-0.67693 0.53877,-0.84803 0.14136,-0.14135 0.50799,-0.42508 1.04358,-0.81936 1.15834,-0.87777 2.29224,-1.61315 3.4527,-2.34534 1.15619,-0.67908 2.65141,-1.52817 4.407,-2.60149 0.68118,-0.42082 1.21466,-0.70776 1.61422,-0.79385 0.42083,-0.19765 0.98725,-0.25075 1.74918,-0.25075 l 4.21042,-0.0574 c 0.37407,0 0.73964,0.0574 1.02019,0.22635 0.22422,0.14239 0.45059,0.39107 0.62487,0.70564 0.11371,0.25185 0.2221,0.64716 0.33475,1.18701 0.11476,0.56749 0.1966,0.96172 0.22847,1.32625 h 1.13284 l -0.22636,-10.34215 -1.07437,0.0563 c 0,0.27844 -0.0606,0.67589 -0.11585,1.27206 -0.0287,0.5611 -0.1137,0.96065 -0.19554,1.21254 -0.14451,0.39957 -0.37193,0.62378 -0.59831,0.78957 -0.27734,0.17216 -0.61952,0.2306 -1.0138,0.2306 l -5.37086,0.0542 c -0.17215,0.0595 -0.45482,-0.0542 -0.90858,-0.2529 -0.4506,-0.19767 -0.95751,-0.39533 -1.47078,-0.67799 -1.24123,-0.62168 -2.56853,-1.30181 -3.95323,-2.00744 -1.41552,-0.7375 -2.63123,-1.38893 -3.64825,-1.95217 -0.59403,-0.2816 -1.04354,-0.5643 -1.35703,-0.9033 -0.30924,-0.22742 -0.53987,-0.50902 -0.81937,-0.84802 -0.1424,-0.25504 -0.28369,-0.5643 -0.33575,-0.90331 -0.11585,-0.34109 -0.1711,-0.65143 -0.1998,-0.90646 h -1.07755 l 0.14131,9.44313 h 1.13604 c 0,-1.07334 0.0521,-1.84273 0.16468,-2.31778 0.11264,-0.39955 0.28481,-0.62378 0.51007,-0.6514 0.0563,0 0.17113,0.0276 0.28376,0.085 0.16685,0.0542 0.39746,0.16686 0.62379,0.25507 0.27843,0.14238 0.61849,0.31134 0.92985,0.47925 0.36985,0.17109 0.70777,0.339 1.01702,0.53772 0.93835,0.47824 1.89479,0.93201 2.79807,1.44209 0.90965,0.45167 2.12113,1.13179 3.61956,1.91923 -2.60046,1.64293 -4.60997,2.94367 -6.10307,3.8172 -1.41658,0.87778 -2.29225,1.30286 -2.57387,1.30286 -0.25715,0 -0.45694,-0.0563 -0.59511,-0.25719 -0.14343,-0.11154 -0.22526,-0.36554 -0.339,-0.64715 -0.11264,-0.31244 -0.17107,-0.62381 -0.19548,-0.9883 -0.0319,-0.34326 -0.0319,-0.70885 -0.0882,-0.99257 h -1.12861 l 0.17007,7.69071 h 1.07116 z"
       style="fill:#5c0f56;fill-opacity:1;fill-rule:nonzero;stroke:none"
       transform="matrix(0.42306667,0,0,-0.42306667,-126.54003,-55.566962)" />
    <path
       id="path25"
       d="m 439.55626,-389.80225 c -0.81719,0 -1.49732,-0.33793 -2.11475,-1.01591 -0.63017,-0.65038 -0.90965,-1.5271 -0.90965,-2.60042 0,-0.93518 0.27948,-1.72582 0.85334,-2.31882 0.56004,-0.59723 1.29964,-0.87672 2.14344,-0.87672 0.84801,0 1.52707,0.27949 2.09348,0.87672 0.56642,0.593 0.81933,1.44101 0.81933,2.48566 0,1.04887 -0.25291,1.86716 -0.88203,2.49095 -0.50371,0.62061 -1.2083,0.95854 -2.00316,0.95854"
       style="fill:#5c0f56;fill-opacity:1;fill-rule:nonzero;stroke:none"
       transform="matrix(0.42306667,0,0,-0.42306667,-126.54003,-55.566962)" />
    <path
       id="path26"
       d="m 453.49457,-389.80225 c -0.79277,0 -1.47287,-0.33793 -2.00633,-1.09988 -0.59409,-0.87885 -0.93944,-2.57596 -0.93944,-5.06055 0,-2.46121 0.28904,-4.04462 0.85547,-4.86291 0.61743,-0.84908 1.29753,-1.24758 2.14447,-1.24758 0.79597,0 1.52816,0.3985 2.1222,1.24758 0.5643,0.81829 0.87566,2.4017 0.87566,4.86291 0,2.48459 -0.31136,4.09777 -0.87566,4.9171 -0.59404,0.79491 -1.32623,1.24333 -2.17637,1.24333"
       style="fill:#5c0f56;fill-opacity:1;fill-rule:nonzero;stroke:none"
       transform="matrix(0.42306667,0,0,-0.42306667,-126.54003,-55.566962)" />
    <path
       id="path27"
       d="m 457.20125,-361.64401 0.47713,-3.9617 h -17.1285 l 0.50586,3.9617 h -53.71182 l 6.70135,8.22416 c 5.68117,0.31247 16.64713,1.75454 26.0371,5.25931 18.25923,6.84268 29.34313,-2.5441 29.34313,-2.5441 8.73214,7.32198 19.70447,5.79805 29.85322,2.06164 9.55151,-3.50373 24.17102,-4.57812 24.17102,-4.57812 l 6.2986,-8.42289 z m 15.11575,-41.67253 h -9.88838 c 0,0.42616 0.0563,0.90756 0.22635,1.24336 0.25612,0.6812 0.67482,1.38577 1.24123,2.00957 0.53771,0.67801 1.3326,1.38574 2.37939,2.28904 1.60678,1.35707 2.7088,2.34644 3.30176,3.16577 0.56643,0.76514 0.88102,1.47289 0.88102,2.20405 0,0.71199 -0.28378,1.3294 -0.81829,1.8087 -0.51011,0.50901 -1.18917,0.79385 -2.04038,0.79385 -0.87671,0 -1.58342,-0.28484 -2.12115,-0.8215 -0.50692,-0.53665 -0.78745,-1.27098 -0.78745,-2.1732 l -1.92348,0.16578 c 0.1679,1.38681 0.62275,2.49095 1.46758,3.2253 0.85123,0.76193 1.97766,1.07435 3.42613,1.07435 1.43678,0 2.57067,-0.36766 3.3868,-1.16046 0.84591,-0.82146 1.26887,-1.80658 1.26887,-2.96597 0,-0.56642 -0.1084,-1.2189 -0.36452,-1.78214 -0.25079,-0.5643 -0.67587,-1.18809 -1.21678,-1.83636 -0.56111,-0.62271 -1.52498,-1.47073 -2.85333,-2.60147 -1.09669,-0.90647 -1.8055,-1.58127 -2.11688,-1.86714 -0.28694,-0.36452 -0.56322,-0.67694 -0.76195,-1.04462 h 7.31346 z m -14.43991,3.13815 c -0.36662,-1.07332 -0.87775,-1.95218 -1.60994,-2.48669 -0.70775,-0.59301 -1.64186,-0.90436 -2.71838,-0.90436 -1.43782,0 -2.59722,0.50903 -3.41443,1.55366 -0.99149,1.21465 -1.5016,3.25078 -1.5016,6.05309 0,1.80978 0.22424,3.21893 0.56218,4.26993 0.373,1.09671 0.90754,1.91818 1.64398,2.45695 0.70456,0.64822 1.63653,0.90434 2.70987,0.90434 0.79596,0 1.50158,-0.14238 2.12327,-0.45163 0.59511,-0.28268 1.10626,-0.79277 1.4984,-1.3868 0.39847,-0.64828 0.6769,-1.35494 0.90326,-2.23485 0.2253,-0.87247 0.339,-2.05953 0.339,-3.55794 0,-1.72687 -0.19769,-3.16681 -0.53561,-4.2157 m -13.99248,0.0861 c -0.45057,-1.12966 -1.07437,-2.00532 -1.86609,-2.57279 -0.85015,-0.59301 -1.81189,-0.90436 -2.8831,-0.90436 -1.1902,0 -2.14767,0.31135 -2.88415,0.9915 -0.73113,0.61848 -1.18912,1.52603 -1.35387,2.74174 l 1.74922,0.17002 c 0.16469,-0.85013 0.48033,-1.46756 0.9054,-1.8395 0.3932,-0.42401 0.96069,-0.5675 1.60785,-0.5675 0.53668,0 1.04676,0.14349 1.50055,0.39851 0.39532,0.25399 0.73536,0.59192 1.0138,1.04358 0.28904,0.4527 0.5154,1.01805 0.68439,1.72794 0.19763,0.73645 0.28053,1.46864 0.28053,2.25931 v 0.42294 c -0.36662,-0.64827 -0.84696,-1.12752 -1.52604,-1.46866 -0.6206,-0.36769 -1.33049,-0.56534 -2.03398,-0.56534 -1.24762,0 -2.28905,0.48033 -3.13709,1.3592 -0.87988,0.93301 -1.33261,2.09136 -1.33261,3.56 0,1.47077 0.45273,2.712 1.35919,3.64611 0.90752,0.90649 2.03399,1.35812 3.33155,1.35812 1.02018,0 1.86821,-0.25612 2.71836,-0.73431 0.79172,-0.51009 1.41552,-1.2731 1.86609,-2.29329 0.33794,-0.95963 0.59406,-2.31773 0.59406,-4.1817 0,-1.89374 -0.25612,-3.42083 -0.59406,-4.55152 m -16.34105,-3.22425 h -1.83633 v 11.67692 c -0.45378,-0.48141 -1.04889,-0.81828 -1.78215,-1.18706 -0.67482,-0.47715 -1.29862,-0.79275 -1.89372,-1.01698 v 1.72263 c 1.04356,0.53558 1.89372,1.13391 2.68756,1.80764 0.78638,0.73752 1.32198,1.36239 1.63762,1.98192 h 1.18702 z m -27.2794,58.86054 c 11.98934,6.21784 23.99886,13.05842 33.38246,22.10514 -6.21785,-1.5271 -11.19232,-1.69608 -16.33575,-1.63869 0.84803,1.35707 2.25822,2.20508 3.3921,3.30606 7.91393,7.40802 16.79061,14.47391 21.08921,25.69918 -2.90859,-0.9894 -6.56002,-1.81192 -10.49093,-1.81192 7.71835,9.89691 13.79911,21.51214 17.02224,35.84791 h 0.45061 c 3.16787,-14.39104 9.35807,-25.86816 17.04452,-35.84791 -3.44844,0.22847 -6.3326,0.36876 -10.3145,1.92028 0.16792,-1.66418 1.04358,-3.24652 1.78318,-4.68859 3.81083,-7.01061 9.94471,-12.57702 15.6588,-17.97976 2.3167,-2.14875 4.8055,-4.04567 6.84058,-6.44525 -6.33259,-0.56747 -9.21887,-0.0574 -16.1689,1.78215 2.25821,-2.68544 5.22846,-4.66629 7.96808,-6.84163 7.46758,-6.10733 16.39418,-10.65884 25.38354,-15.40697 0.70989,-0.3698 1.81403,-0.62061 2.09458,-1.55683 -7.45801,-1.04676 -15.74808,-0.48033 -23.80118,2.09456 -9.83844,3.38893 -19.16568,3.58978 -26.06788,-2.85653 -7.68542,6.19126 -15.29007,6.27628 -27.58759,3.02657 -7.01059,-2.1796 -16.17102,-3.16895 -23.55037,-2.2646 0.25823,1.01806 1.44101,1.15939 2.2072,1.55683 m 136.0016,100.15798 H 359.8116 c -0.22633,-0.0287 -0.17001,-0.30925 -0.28372,-0.48247 -0.17111,-22.67152 0.0861,-46.02321 0,-68.09858 -0.17111,-22.36229 3.07861,-42.57581 10.34746,-58.48753 7.12326,-15.7502 18.82777,-27.08489 32.11146,-36.60983 13.51642,-9.58764 30.41965,-14.72897 46.02428,-22.78739 15.54612,8.11261 32.39729,13.17212 45.85206,22.98504 13.28687,9.61208 25.30173,20.6333 32.34209,36.54929 7.01059,15.97333 10.17316,35.647 10.17316,58.6618 0,22.21883 0.17216,45.7926 -0.11263,68.26967"
       style="fill:#5c0f56;fill-opacity:1;fill-rule:nonzero;stroke:none"
       transform="matrix(0.42306667,0,0,-0.42306667,-126.54003,-55.566962)" />
  </g>
</svg>
